<svg xmlns="http://www.w3.org/2000/svg" xmlns:xlink="http://www.w3.org/1999/xlink" viewBox="0 0 1199 400"><defs><style>.cls-1{fill:#605275;}.cls-2{fill:#8484c2;}.cls-3{fill:#f6d641;}.cls-10,.cls-11,.cls-4,.cls-6,.cls-8,.cls-9{fill:none;}.cls-4,.cls-8{stroke:#000;}.cls-10,.cls-4,.cls-6,.cls-8,.cls-9{stroke-miterlimit:10;}.cls-5{fill:#a974aa;}.cls-6{stroke:#c6b5c3;stroke-width:6px;}.cls-7{fill:#faeb86;}.cls-8{stroke-width:0.5px;}.cls-9{stroke:#f73939;stroke-width:3px;}.cls-10{stroke:#0c0c0c;}</style><symbol id="new1" data-name="new1" viewBox="0 0 399 399"><polygon class="cls-1" points="38.02 383.31 38.02 398.8 128.25 398.8 100.91 383.31 38.02 383.31"/><polygon class="cls-1" points="99.04 383.95 164.6 383.95 190.25 396.3 99.04 396.3 99.04 383.95"/><polyline class="cls-2" points="41.9 281.02 41.7 383.75 93.48 383.75 93.48 313.62 107.04 313.62 107.04 383.75 158.82 383.75 158.82 295.33"/><path class="cls-3" d="M154.56,207.27c-10.63,18.43-30.08,26.52-44.93,21.2-11.39-4.09-16.72-14.87-18.23-18.23a98.73,98.73,0,0,0,14.84,3A104.1,104.1,0,0,0,154.56,207.27Z"/><path class="cls-3" d="M158.71,239.62,207,245.55a39.08,39.08,0,0,0,8.83,12.52s.5.47,1,.94c7,6.15,36.1,11.88,41,12.82,0,0,28,1.7,19.5,24.59,0,0-3.81,12.29-29.25,8.9C248.15,305.32,162.52,296.84,158.71,239.62Z"/><path class="cls-4" d="M158,203"/><path class="cls-5" d="M86.09,205s-66.77-14.92-72.26,42.76c0,0,19.21,6,54.88,8.95a45.17,45.17,0,0,0,10.52,17.4c6.8,6.83,14,9,23.78,11.93a110.72,110.72,0,0,0,30.64,4.47c15.15,8.16,21.53,7.28,24.55,4.88s2.72-6.59,4.55-13.93A65,65,0,0,1,172.63,260c-5.05-13.23-6.73-25.48-2.19-28.61,5.13-3.53,18.76,4.17,32.76,20.25-.26-24.42-11.08-43.89-25.75-47.89-10.09-2.75-21.55,2-22.32,2.28-12,5.07-11.41,12.54-23.42,16.64-1.74.59-13.26,4.35-24-.62-2.88-1.33-5-3-9.24-6.16A110.77,110.77,0,0,1,86.09,205Z"/><path class="cls-3" d="M16.45,246.7l49.45,5.69s9.54,26,52.06,25.18c0,0,28.63,1.62,20,23.56,0,0-3.9,11.78-29.93,8.53C108,309.65,20.36,301.53,16.45,246.7Z"/><path class="cls-6" d="M89.71,208.54a36.08,36.08,0,0,0,19.52,15.71,35.42,35.42,0,0,0,19.84.47,26.41,26.41,0,0,0,19.14-17.87"/><path class="cls-7" d="M75.72,202.18s-11.87,36.46-28,34.76-24.59,19.5-24.59,19.5-54.26-78,11-157.69S177.45,57.21,177.45,57.21s73.76,58.5,28.83,121.24,19.5,50.87,19.5,50.87-26.28,47.48-77.15,27.13,27.13-60.19,27.13-60.19S247.82,86.88,124,74.17c0,0-64.43,5.93-62.74,41.54s10.17,33.91,10.17,33.91-28.83-5.93-35.61-22.89c0,0-11.87-2.54-17,3.39s-8.48,10.17-.85,22.89c0,0,5.93,5.93,22.89,5.09C41,158.1,41,182.68,75.72,202.18Z"/><path class="cls-3" d="M38,156.83A86.14,86.14,0,0,0,76.14,204.3C98.69,217.44,123,217.18,138,213.63a121.53,121.53,0,0,0,21.2-7.63,107.68,107.68,0,0,0,16.11-9.33c16.34-12,22.81-33.24,25-42,0,0,32.22,7.63,20.35-26.28,0,0-5.93-5.09-19.5-2.54a71.09,71.09,0,0,0-20.35-31.37C170.23,85.17,159.55,81.7,152,79.25,145.28,77.07,132,72.9,114.72,75A84.17,84.17,0,0,0,91,81.8c-8.69,3.9-19.4,8.71-25.43,17.8-12.75,19.23,2.32,47.25,3.39,49.17a41.15,41.15,0,0,1-15.68-8.05c-4.74-4-5.33-6.09-10.17-9.33-3.91-2.62-10.33-6.91-17.8-5.09C20.13,127.56,14,131.84,12.56,139c-1.7,8.59,4.64,14.83,5.09,15.26,1.08.83,10.32,7.75,17.8,4.24A10.43,10.43,0,0,0,38,156.83Z"/><circle cx="111.75" cy="142.41" r="4.24"/><circle cx="176.18" cy="144.11" r="4.24"/><path class="cls-8" d="M143.12,133.09s9.33,9.33,9.33,17.8a20.1,20.1,0,0,1-17,1.7"/><path class="cls-9" d="M127.43,163.19s17,19.5,33.06,0"/><path class="cls-10" d="M92.67,125.88s12.72-8.48,26.28-6.78"/><path class="cls-10" d="M171.52,119.1s14.41-4.24,19.5,6.78"/><rect class="cls-11" width="399" height="399"/></symbol><symbol id="new2" data-name="new2" viewBox="0 0 400 400"><polygon class="cls-1" points="36.02 382.31 36.02 397.8 126.25 397.8 98.91 382.31 36.02 382.31"/><polygon class="cls-1" points="97.04 382.95 162.6 382.95 188.25 395.3 97.04 395.3 97.04 382.95"/><polyline class="cls-2" points="39.9 280.02 39.7 382.75 91.48 382.75 91.48 312.62 105.04 312.62 105.04 382.75 156.82 382.75 156.82 294.33"/><path class="cls-3" d="M152.56,206.27c-10.63,18.43-30.08,26.52-44.93,21.2-11.39-4.09-16.72-14.87-18.23-18.23a98.73,98.73,0,0,0,14.84,3A104.1,104.1,0,0,0,152.56,206.27Z"/><path class="cls-3" d="M157.41,256.09l46.53-14.33a39.08,39.08,0,0,0,13.18,7.82s.65.23,1.32.44c8.86,2.77,37.81-3.92,42.67-5.06,0,0,26.23-9.89,27.84,14.47,0,0,1.54,12.78-23.06,20.08C265.9,279.51,184.28,306.76,157.41,256.09Z"/><path class="cls-4" d="M156,202"/><path class="cls-5" d="M84.09,204s-66.77-14.92-72.26,42.76c0,0,19.21,6,54.88,8.95a45.17,45.17,0,0,0,10.52,17.4c6.8,6.83,14,9,23.78,11.93a110.72,110.72,0,0,0,30.64,4.47c15.15,8.16,21.53,7.28,24.55,4.88s2.72-6.59,4.55-13.93A65,65,0,0,1,170.63,259c-5.05-13.23-6.73-25.48-2.19-28.61,5.13-3.53,18.76,4.17,32.76,20.25-.26-24.42-11.08-43.89-25.75-47.89-10.09-2.75-21.55,2-22.32,2.28-12,5.07-11.41,12.54-23.42,16.64-1.74.59-13.26,4.35-24-.62-2.88-1.33-5-3-9.24-6.16A110.77,110.77,0,0,1,84.09,204Z"/><path class="cls-3" d="M16.28,247.61l49.74-2s13.45,24.2,55.33,16.82c0,0,28.54-2.83,23.36,20.18,0,0-2,12.24-28.25,13.06C116.45,295.63,28.63,301.17,16.28,247.61Z"/><path class="cls-6" d="M87.71,207.54a36.08,36.08,0,0,0,19.52,15.71,35.42,35.42,0,0,0,19.84.47,26.41,26.41,0,0,0,19.14-17.87"/><path class="cls-7" d="M73.72,201.18s-11.87,36.46-28,34.76-24.59,19.5-24.59,19.5-54.26-78,11-157.69S175.45,56.21,175.45,56.21s73.76,58.5,28.83,121.24,19.5,50.87,19.5,50.87-26.28,47.48-77.15,27.13,27.13-60.19,27.13-60.19S245.82,85.88,122,73.17c0,0-64.43,5.93-62.74,41.54s10.17,33.91,10.17,33.91-28.83-5.93-35.61-22.89c0,0-11.87-2.54-17,3.39S8.44,139.29,16.07,152c0,0,5.93,5.93,22.89,5.09C39,157.1,39,181.68,73.72,201.18Z"/><path class="cls-3" d="M36,155.83A86.14,86.14,0,0,0,74.14,203.3C96.69,216.44,121,216.18,136,212.63a121.53,121.53,0,0,0,21.2-7.63,107.68,107.68,0,0,0,16.11-9.33c16.34-12,22.81-33.24,25-42,0,0,32.22,7.63,20.35-26.28,0,0-5.93-5.09-19.5-2.54a71.09,71.09,0,0,0-20.35-31.37C168.23,84.17,157.55,80.7,150,78.25,143.28,76.07,130,71.9,112.72,74A84.17,84.17,0,0,0,89,80.8c-8.69,3.9-19.4,8.71-25.43,17.8-12.75,19.23,2.32,47.25,3.39,49.17a41.15,41.15,0,0,1-15.68-8.05c-4.74-4-5.33-6.09-10.17-9.33-3.91-2.62-10.33-6.91-17.8-5.09C18.13,126.56,12,130.84,10.56,138c-1.7,8.59,4.64,14.83,5.09,15.26,1.08.83,10.32,7.75,17.8,4.24A10.43,10.43,0,0,0,36,155.83Z"/><circle cx="109.75" cy="141.41" r="4.24"/><circle cx="174.18" cy="143.11" r="4.24"/><path class="cls-8" d="M141.12,132.09s9.33,9.33,9.33,17.8a20.1,20.1,0,0,1-17,1.7"/><path class="cls-9" d="M125.43,162.19s17,19.5,33.06,0"/><path class="cls-10" d="M90.67,124.88s12.72-8.48,26.28-6.78"/><path class="cls-10" d="M169.52,118.1s14.41-4.24,19.5,6.78"/><rect class="cls-11" width="400" height="400"/></symbol><symbol id="new3" data-name="new3" viewBox="0 0 400 400"><polygon class="cls-1" points="36.02 382.31 36.02 397.8 126.25 397.8 98.91 382.31 36.02 382.31"/><polygon class="cls-1" points="97.04 382.95 162.6 382.95 188.25 395.3 97.04 395.3 97.04 382.95"/><polyline class="cls-2" points="39.9 280.02 39.7 382.75 91.48 382.75 91.48 312.62 105.04 312.62 105.04 382.75 156.82 382.75 156.82 294.33"/><path class="cls-3" d="M152.56,206.27c-10.63,18.43-30.08,26.52-44.93,21.2-11.39-4.09-16.72-14.87-18.23-18.23a98.73,98.73,0,0,0,14.84,3A104.1,104.1,0,0,0,152.56,206.27Z"/><path class="cls-3" d="M154.23,243.9l48.69.22a39.08,39.08,0,0,0,10.24,11.4s.55.41,1.13.81c7.62,5.29,37.25,7.56,42.23,7.92,0,0,28-1.6,22.25,22.13,0,0-2.35,12.66-28,12.27C250.77,298.66,164.74,300.29,154.23,243.9Z"/><path class="cls-4" d="M156,202"/><path class="cls-5" d="M84.09,204s-66.77-14.92-72.26,42.76c0,0,19.21,6,54.88,8.95a45.17,45.17,0,0,0,10.52,17.4c6.8,6.83,14,9,23.78,11.93a110.72,110.72,0,0,0,30.64,4.47c15.15,8.16,21.53,7.28,24.55,4.88s2.72-6.59,4.55-13.93A65,65,0,0,1,170.63,259c-5.05-13.23-6.73-25.48-2.19-28.61,5.13-3.53,18.76,4.17,32.76,20.25-.26-24.42-11.08-43.89-25.75-47.89-10.09-2.75-21.55,2-22.32,2.28-12,5.07-11.41,12.54-23.42,16.64-1.74.59-13.26,4.35-24-.62-2.88-1.33-5-3-9.24-6.16A110.77,110.77,0,0,1,84.09,204Z"/><path class="cls-3" d="M13.33,248,63,251.84s10.49,25.63,52.94,23.26c0,0,28.67.57,20.8,22.81,0,0-3.47,11.91-29.6,9.62C107.11,307.53,19.24,302.62,13.33,248Z"/><path class="cls-6" d="M87.71,207.54a36.08,36.08,0,0,0,19.52,15.71,35.42,35.42,0,0,0,19.84.47,26.41,26.41,0,0,0,19.14-17.87"/><path class="cls-7" d="M73.72,201.18s-11.87,36.46-28,34.76-24.59,19.5-24.59,19.5-54.26-78,11-157.69S175.45,56.21,175.45,56.21s73.76,58.5,28.83,121.24,19.5,50.87,19.5,50.87-26.28,47.48-77.15,27.13,27.13-60.19,27.13-60.19S245.82,85.88,122,73.17c0,0-64.43,5.93-62.74,41.54s10.17,33.91,10.17,33.91-28.83-5.93-35.61-22.89c0,0-11.87-2.54-17,3.39S8.44,139.29,16.07,152c0,0,5.93,5.93,22.89,5.09C39,157.1,39,181.68,73.72,201.18Z"/><path class="cls-3" d="M36,155.83A86.14,86.14,0,0,0,74.14,203.3C96.69,216.44,121,216.18,136,212.63a121.53,121.53,0,0,0,21.2-7.63,107.68,107.68,0,0,0,16.11-9.33c16.34-12,22.81-33.24,25-42,0,0,32.22,7.63,20.35-26.28,0,0-5.93-5.09-19.5-2.54a71.09,71.09,0,0,0-20.35-31.37C168.23,84.17,157.55,80.7,150,78.25,143.28,76.07,130,71.9,112.72,74A84.17,84.17,0,0,0,89,80.8c-8.69,3.9-19.4,8.71-25.43,17.8-12.75,19.23,2.32,47.25,3.39,49.17a41.15,41.15,0,0,1-15.68-8.05c-4.74-4-5.33-6.09-10.17-9.33-3.91-2.62-10.33-6.91-17.8-5.09C18.13,126.56,12,130.84,10.56,138c-1.7,8.59,4.64,14.83,5.09,15.26,1.08.83,10.32,7.75,17.8,4.24A10.43,10.43,0,0,0,36,155.83Z"/><circle cx="109.75" cy="141.41" r="4.24"/><circle cx="174.18" cy="143.11" r="4.24"/><path class="cls-8" d="M141.12,132.09s9.33,9.33,9.33,17.8a20.1,20.1,0,0,1-17,1.7"/><path class="cls-9" d="M125.43,162.19s17,19.5,33.06,0"/><path class="cls-10" d="M90.67,124.88s12.72-8.48,26.28-6.78"/><path class="cls-10" d="M169.52,118.1s14.41-4.24,19.5,6.78"/><rect class="cls-11" width="400" height="400"/></symbol></defs><title>ny-piger</title><g id="Layer_2" data-name="Layer 2"><g id="pige"><use width="399" height="399" xlink:href="#new1"/><use width="400" height="400" transform="translate(399)" xlink:href="#new2"/><use width="400" height="400" transform="translate(799)" xlink:href="#new3"/></g></g></svg>
