<svg xmlns="http://www.w3.org/2000/svg" xmlns:xlink="http://www.w3.org/1999/xlink" viewBox="0 0 4196 1044.5"><defs><style>.cls-1,.cls-10,.cls-11,.cls-5,.cls-7,.cls-9{fill:none;}.cls-2{fill:#4e4161;}.cls-3{fill:#8484c2;}.cls-4{fill:#f6d641;}.cls-5,.cls-9{stroke:#000;}.cls-10,.cls-11,.cls-5,.cls-7,.cls-9{stroke-miterlimit:10;}.cls-6{fill:#a974aa;}.cls-7{stroke:#c6b5c3;stroke-width:6px;}.cls-8{fill:#faeb86;}.cls-9{stroke-width:0.5px;}.cls-10{stroke:#f73939;stroke-width:3px;}.cls-11{stroke:#0c0c0c;}.cls-12{font-size:70px;fill:#fff;font-family:MyriadPro-Regular, Myriad Pro;}</style><symbol id="pige1" data-name="pige1" viewBox="0 0 277 350.72"><polygon class="cls-2" points="36.02 335.23 36.02 350.72 126.25 350.72 98.91 335.23 36.02 335.23"/><polygon class="cls-2" points="97.04 335.87 162.6 335.87 188.25 348.22 97.04 348.22 97.04 335.87"/><polyline class="cls-3" points="39.9 232.94 39.7 335.67 91.48 335.67 91.48 265.54 105.04 265.54 105.04 335.67 156.82 335.67 156.82 247.25"/><path class="cls-4" d="M152.56,159.19c-10.63,18.43-30.08,26.52-44.93,21.2-11.39-4.09-16.72-14.87-18.23-18.23a98.73,98.73,0,0,0,14.84,3A104.1,104.1,0,0,0,152.56,159.19Z"/><path class="cls-4" d="M156.71,191.53,205,197.47A39.08,39.08,0,0,0,213.86,210s.5.47,1,.94c7,6.15,36.1,11.88,41,12.82,0,0,28,1.7,19.5,24.59,0,0-3.81,12.29-29.25,8.9C246.15,257.24,160.52,248.76,156.71,191.53Z"/><path class="cls-5" d="M156,154.95"/><path class="cls-6" d="M84.09,156.9S17.32,142,11.83,199.66c0,0,19.21,6,54.88,8.95A45.17,45.17,0,0,0,77.23,226c6.8,6.83,14,9,23.78,11.93a110.72,110.72,0,0,0,30.64,4.47c15.15,8.16,21.53,7.28,24.55,4.88s2.72-6.59,4.55-13.93a65,65,0,0,1,9.87-21.46c-5.05-13.23-6.73-25.48-2.19-28.61,5.13-3.53,18.76,4.17,32.76,20.25-.26-24.42-11.08-43.89-25.75-47.89-10.09-2.75-21.55,2-22.32,2.28-12,5.07-11.41,12.54-23.42,16.64-1.74.59-13.26,4.35-24-.62-2.88-1.33-5-3-9.24-6.16A110.77,110.77,0,0,1,84.09,156.9Z"/><path class="cls-4" d="M14.45,198.61l49.45,5.69s9.54,26,52.06,25.18c0,0,28.63,1.62,20,23.56,0,0-3.9,11.78-29.93,8.53C106,261.57,18.36,253.44,14.45,198.61Z"/><path class="cls-7" d="M87.71,160.46a36.08,36.08,0,0,0,19.52,15.71,35.42,35.42,0,0,0,19.84.47,26.41,26.41,0,0,0,19.14-17.87"/><path class="cls-8" d="M73.72,154.1s-11.87,36.46-28,34.76-24.59,19.5-24.59,19.5-54.26-78,11-157.69S175.45,9.13,175.45,9.13s73.76,58.5,28.83,121.24,19.5,50.87,19.5,50.87-26.28,47.48-77.15,27.13,27.13-60.19,27.13-60.19S245.82,38.8,122,26.08c0,0-64.43,5.93-62.74,41.54s10.17,33.91,10.17,33.91S40.65,95.6,33.87,78.65c0,0-11.87-2.54-17,3.39s-8.48,10.17-.85,22.89c0,0,5.93,5.93,22.89,5.09C39,110,39,134.6,73.72,154.1Z"/><path class="cls-4" d="M36,108.74a86.14,86.14,0,0,0,38.15,47.48C96.69,169.36,121,169.1,136,165.55a121.53,121.53,0,0,0,21.2-7.63,107.68,107.68,0,0,0,16.11-9.33c16.34-12,22.81-33.24,25-42,0,0,32.22,7.63,20.35-26.28,0,0-5.93-5.09-19.5-2.54a71.09,71.09,0,0,0-20.35-31.37C168.23,37.08,157.55,33.62,150,31.17c-6.74-2.19-20.06-6.36-37.3-4.24A84.17,84.17,0,0,0,89,33.71c-8.69,3.9-19.4,8.71-25.43,17.8-12.75,19.23,2.32,47.25,3.39,49.17a41.15,41.15,0,0,1-15.68-8.05c-4.74-4-5.33-6.09-10.17-9.33-3.91-2.62-10.33-6.91-17.8-5.09C18.13,79.48,12,83.76,10.56,90.94c-1.7,8.59,4.64,14.83,5.09,15.26,1.08.83,10.32,7.75,17.8,4.24A10.43,10.43,0,0,0,36,108.74Z"/><circle cx="109.75" cy="94.33" r="4.24"/><circle cx="174.18" cy="96.03" r="4.24"/><path class="cls-9" d="M141.12,85s9.33,9.33,9.33,17.8a20.1,20.1,0,0,1-17,1.7"/><path class="cls-10" d="M125.43,115.1s17,19.5,33.06,0"/><path class="cls-11" d="M90.67,77.8S103.39,69.32,117,71"/><path class="cls-11" d="M169.52,71s14.41-4.24,19.5,6.78"/></symbol><symbol id="p1" data-name="p1" viewBox="0 0 277 350.72"><use width="277" height="350.72" xlink:href="#pige1"/></symbol><symbol id="ani1" data-name="ani1" viewBox="0 0 400 400"><use width="277" height="350.72" transform="translate(70 40.08)" xlink:href="#p1"/><rect class="cls-1" width="400" height="400"/></symbol><symbol id="pige2" data-name="pige2" viewBox="0 0 279.58 335.67"><polyline class="cls-3" points="39.9 232.94 39.7 335.67 91.48 335.67 91.48 265.54 105.04 265.54 105.04 335.67 156.82 335.67 156.82 247.25"/><path class="cls-4" d="M152.56,159.19c-10.63,18.43-30.08,26.52-44.93,21.2-11.39-4.09-16.72-14.87-18.23-18.23a98.73,98.73,0,0,0,14.84,3A104.1,104.1,0,0,0,152.56,159.19Z"/><path class="cls-4" d="M148.18,209.2l45-18.47a39.08,39.08,0,0,0,13.83,6.6s.66.17,1.35.32c9.07,2,37.3-7.31,42-8.88,0,0,25.23-12.21,29,11.9,0,0,2.69,12.59-21.15,22.07C258.33,222.74,179.51,257.24,148.18,209.2Z"/><path class="cls-5" d="M156,154.95"/><path class="cls-6" d="M84.09,156.9S17.32,142,11.83,199.66c0,0,19.21,6,54.88,8.95A45.17,45.17,0,0,0,77.23,226c6.8,6.83,14,9,23.78,11.93a110.72,110.72,0,0,0,30.64,4.47c15.15,8.16,21.53,7.28,24.55,4.88s2.72-6.59,4.55-13.93a65,65,0,0,1,9.87-21.46c-5.05-13.23-6.73-25.48-2.19-28.61,5.13-3.53,18.76,4.17,32.76,20.25-.26-24.42-11.08-43.89-25.75-47.89-10.09-2.75-21.55,2-22.32,2.28-12,5.07-11.41,12.54-23.42,16.64-1.74.59-13.26,4.35-24-.62-2.88-1.33-5-3-9.24-6.16A110.77,110.77,0,0,1,84.09,156.9Z"/><path class="cls-4" d="M16.83,196.92l49.77-.83s12.86,24.52,54.9,18.15c0,0,28.6-2.14,22.87,20.74,0,0-2.33,12.19-28.56,12.37C115.81,247.35,27.87,250.76,16.83,196.92Z"/><path class="cls-7" d="M87.71,160.46a36.08,36.08,0,0,0,19.52,15.71,35.42,35.42,0,0,0,19.84.47,26.41,26.41,0,0,0,19.14-17.87"/><path class="cls-8" d="M73.72,154.1s-11.87,36.46-28,34.76-24.59,19.5-24.59,19.5-54.26-78,11-157.69S175.45,9.13,175.45,9.13s73.76,58.5,28.83,121.24,19.5,50.87,19.5,50.87-26.28,47.48-77.15,27.13,27.13-60.19,27.13-60.19S245.82,38.8,122,26.08c0,0-64.43,5.93-62.74,41.54s10.17,33.91,10.17,33.91S40.65,95.6,33.87,78.65c0,0-11.87-2.54-17,3.39s-8.48,10.17-.85,22.89c0,0,5.93,5.93,22.89,5.09C39,110,39,134.6,73.72,154.1Z"/><path class="cls-4" d="M36,108.74a86.14,86.14,0,0,0,38.15,47.48C96.69,169.36,121,169.1,136,165.55a121.53,121.53,0,0,0,21.2-7.63,107.68,107.68,0,0,0,16.11-9.33c16.34-12,22.81-33.24,25-42,0,0,32.22,7.63,20.35-26.28,0,0-5.93-5.09-19.5-2.54a71.09,71.09,0,0,0-20.35-31.37C168.23,37.08,157.55,33.62,150,31.17c-6.74-2.19-20.06-6.36-37.3-4.24A84.17,84.17,0,0,0,89,33.71c-8.69,3.9-19.4,8.71-25.43,17.8-12.75,19.23,2.32,47.25,3.39,49.17a41.15,41.15,0,0,1-15.68-8.05c-4.74-4-5.33-6.09-10.17-9.33-3.91-2.62-10.33-6.91-17.8-5.09C18.13,79.48,12,83.76,10.56,90.94c-1.7,8.59,4.64,14.83,5.09,15.26,1.08.83,10.32,7.75,17.8,4.24A10.43,10.43,0,0,0,36,108.74Z"/><circle cx="116.75" cy="91.33" r="4.24"/><circle cx="179.18" cy="92.03" r="4.24"/><path class="cls-9" d="M140.72,85s9.68,9,10,17.43a20.1,20.1,0,0,1-16.88,2.34"/><path class="cls-10" d="M126.12,113s14.33,21.5,32.79,4.22"/><path class="cls-11" d="M91.66,80.39s10.73-10.88,24.36-12"/><path class="cls-11" d="M171.41,67.51s14.94,1.61,15.41,13.74"/></symbol><symbol id="p2" data-name="p2" viewBox="0 0 279.58 350.72"><polygon class="cls-2" points="36.02 335.23 36.02 350.72 126.25 350.72 98.91 335.23 36.02 335.23"/><polygon class="cls-2" points="97.04 334.87 162.6 334.87 188.25 347.22 97.04 347.22 97.04 334.87"/><use width="279.58" height="335.67" xlink:href="#pige2"/></symbol><symbol id="ani2" data-name="ani2" viewBox="0 0 400 400"><use width="279.58" height="350.72" transform="translate(73.5 47.58)" xlink:href="#p2"/><rect class="cls-1" width="400" height="400"/></symbol><symbol id="ani3" data-name="ani3" viewBox="0 0 400 400"><use width="277" height="350.72" transform="translate(79.5 44.58)" xlink:href="#pige1"/><rect class="cls-1" width="400" height="400"/></symbol></defs><title>ommig-animation</title><g id="tekst"><text class="cls-12" transform="translate(445.4 347.96)">OM MIG<tspan x="0" y="84">BLABLABLABLALBALABLA</tspan><tspan x="758.79" y="84">-</tspan><tspan x="0" y="168">BALALALALABBLALBABLA</tspan><tspan x="763.69" y="168">-</tspan><tspan x="0" y="252">LALBABLBABLABLABLAL</tspan><tspan x="715.95" y="252">-</tspan><tspan x="0" y="336">BALBALABLBALBABLABLA</tspan><tspan x="0" y="420">BLALBALBALBALBABLABL</tspan><tspan x="0" y="504">ALBALBALBALBALBABLAL</tspan></text></g><g id="pige"><polygon class="cls-2" points="36.02 836.81 36.02 852.3 126.25 852.3 98.91 836.81 36.02 836.81"/><polygon class="cls-2" points="97.04 837.45 162.6 837.45 188.25 849.8 97.04 849.8 97.04 837.45"/><polyline class="cls-3" points="39.9 734.52 39.7 837.25 91.48 837.25 91.48 767.12 105.04 767.12 105.04 837.25 156.82 837.25 156.82 748.83"/><path class="cls-4" d="M200.56,658.27c-10.63,18.43-30.08,26.52-44.93,21.2-11.39-4.09-16.72-14.87-18.23-18.23a98.73,98.73,0,0,0,14.84,3A104.1,104.1,0,0,0,200.56,658.27Z" transform="translate(-48 2.5)"/><path class="cls-4" d="M204.71,690.62,253,696.55a39.08,39.08,0,0,0,8.83,12.52s.5.47,1,.94c7,6.15,36.1,11.88,41,12.82,0,0,28,1.7,19.5,24.59,0,0-3.81,12.29-29.25,8.9C294.15,756.32,208.52,747.84,204.71,690.62Z" transform="translate(-48 2.5)"/><path class="cls-5" d="M204,654" transform="translate(-48 2.5)"/><path class="cls-6" d="M132.09,656s-66.77-14.92-72.26,42.76c0,0,19.21,6,54.88,8.95a45.17,45.17,0,0,0,10.52,17.4c6.8,6.83,14,9,23.78,11.93a110.72,110.72,0,0,0,30.64,4.47c15.15,8.16,21.53,7.28,24.55,4.88s2.72-6.59,4.55-13.93A65,65,0,0,1,218.63,711c-5.05-13.23-6.73-25.48-2.19-28.61,5.13-3.53,18.76,4.17,32.76,20.25-.26-24.42-11.08-43.89-25.75-47.89-10.09-2.75-21.55,2-22.32,2.28-12,5.07-11.41,12.54-23.42,16.64-1.74.59-13.26,4.35-24-.62-2.88-1.33-5-3-9.24-6.16A110.77,110.77,0,0,1,132.09,656Z" transform="translate(-48 2.5)"/><path class="cls-4" d="M62.45,697.7l49.45,5.69s9.54,26,52.06,25.18c0,0,28.63,1.62,20,23.56,0,0-3.9,11.78-29.93,8.53C154,760.65,66.36,752.53,62.45,697.7Z" transform="translate(-48 2.5)"/><path class="cls-7" d="M135.71,659.54a36.08,36.08,0,0,0,19.52,15.71,35.42,35.42,0,0,0,19.84.47,26.41,26.41,0,0,0,19.14-17.87" transform="translate(-48 2.5)"/><path class="cls-8" d="M121.72,653.18s-11.87,36.46-28,34.76-24.59,19.5-24.59,19.5-54.26-78,11-157.69,143.28-41.54,143.28-41.54,73.76,58.5,28.83,121.24,19.5,50.87,19.5,50.87-26.28,47.48-77.15,27.13,27.13-60.19,27.13-60.19S293.82,537.88,170,525.17c0,0-64.43,5.93-62.74,41.54s10.17,33.91,10.17,33.91-28.83-5.93-35.61-22.89c0,0-11.87-2.54-17,3.39s-8.48,10.17-.85,22.89c0,0,5.93,5.93,22.89,5.09C87,609.1,87,633.68,121.72,653.18Z" transform="translate(-48 2.5)"/><path class="cls-4" d="M84,607.83a86.14,86.14,0,0,0,38.15,47.48c22.55,13.14,46.84,12.88,61.89,9.33a121.53,121.53,0,0,0,21.2-7.63,107.68,107.68,0,0,0,16.11-9.33c16.34-12,22.81-33.24,25-42,0,0,32.22,7.63,20.35-26.28,0,0-5.93-5.09-19.5-2.54a71.09,71.09,0,0,0-20.35-31.37c-10.61-9.35-21.29-12.81-28.83-15.26-6.74-2.19-20.06-6.36-37.3-4.24A84.17,84.17,0,0,0,137,532.8c-8.69,3.9-19.4,8.71-25.43,17.8-12.75,19.23,2.32,47.25,3.39,49.17a41.15,41.15,0,0,1-15.68-8.05c-4.74-4-5.33-6.09-10.17-9.33-3.91-2.62-10.33-6.91-17.8-5.09C66.13,578.56,60,582.84,58.56,590c-1.7,8.59,4.64,14.83,5.09,15.26,1.08.83,10.32,7.75,17.8,4.24A10.43,10.43,0,0,0,84,607.83Z" transform="translate(-48 2.5)"/><circle cx="109.75" cy="595.91" r="4.24"/><circle cx="174.18" cy="597.61" r="4.24"/><path class="cls-9" d="M189.12,584.09s9.33,9.33,9.33,17.8a20.1,20.1,0,0,1-17,1.7" transform="translate(-48 2.5)"/><path class="cls-10" d="M173.43,614.19s17,19.5,33.06,0" transform="translate(-48 2.5)"/><path class="cls-11" d="M138.67,576.88s12.72-8.48,26.28-6.78" transform="translate(-48 2.5)"/><path class="cls-11" d="M217.52,570.1s14.41-4.24,19.5,6.78" transform="translate(-48 2.5)"/><use width="400" height="400" transform="translate(1515 4.5)" xlink:href="#ani1"/><use width="400" height="400" transform="translate(2007.5)" xlink:href="#ani2"/><use width="400" height="400" transform="translate(2520.5)" xlink:href="#ani3"/><use width="400" height="400" transform="translate(2923 644.5)" xlink:href="#ani1"/><use width="400" height="400" transform="translate(3359.5 644.5)" xlink:href="#ani2"/><use width="400" height="400" transform="translate(3796 644.5)" xlink:href="#ani3"/></g></svg>
