<svg xmlns="http://www.w3.org/2000/svg" xmlns:xlink="http://www.w3.org/1999/xlink" viewBox="0 0 1199 406"><defs><style>.cls-1,.cls-10,.cls-11,.cls-5,.cls-7,.cls-9{fill:none;}.cls-2{fill:#4e4161;}.cls-3{fill:#8484c2;}.cls-4{fill:#f6d641;}.cls-5,.cls-9{stroke:#000;}.cls-10,.cls-11,.cls-5,.cls-7,.cls-9{stroke-miterlimit:10;}.cls-6{fill:#a974aa;}.cls-7{stroke:#c6b5c3;stroke-width:6px;}.cls-8{fill:#faeb86;}.cls-9{stroke-width:0.5px;}.cls-10{stroke:#f73939;stroke-width:3px;}.cls-11{stroke:#0c0c0c;}</style><symbol id="p3" data-name="p3" viewBox="0 0 277 350.72"><polygon class="cls-2" points="36.02 335.23 36.02 350.72 126.25 350.72 98.91 335.23 36.02 335.23"/><polygon class="cls-2" points="97.04 335.87 162.6 335.87 188.25 348.22 97.04 348.22 97.04 335.87"/><polyline class="cls-3" points="39.9 232.94 39.7 335.67 91.48 335.67 91.48 265.54 105.04 265.54 105.04 335.67 156.82 335.67 156.82 247.25"/><path class="cls-4" d="M152.56,159.19c-10.63,18.43-30.08,26.52-44.93,21.2-11.39-4.09-16.72-14.87-18.23-18.23a98.73,98.73,0,0,0,14.84,3A104.1,104.1,0,0,0,152.56,159.19Z"/><path class="cls-4" d="M156.71,191.53,205,197.47A39.08,39.08,0,0,0,213.86,210s.5.47,1,.94c7,6.15,36.1,11.88,41,12.82,0,0,28,1.7,19.5,24.59,0,0-3.81,12.29-29.25,8.9C246.15,257.24,160.52,248.76,156.71,191.53Z"/><path class="cls-5" d="M156,154.95"/><path class="cls-6" d="M84.09,156.9S17.32,142,11.83,199.66c0,0,19.21,6,54.88,8.95A45.17,45.17,0,0,0,77.23,226c6.8,6.83,14,9,23.78,11.93a110.72,110.72,0,0,0,30.64,4.47c15.15,8.16,21.53,7.28,24.55,4.88s2.72-6.59,4.55-13.93a65,65,0,0,1,9.87-21.46c-5.05-13.23-6.73-25.48-2.19-28.61,5.13-3.53,18.76,4.17,32.76,20.25-.26-24.42-11.08-43.89-25.75-47.89-10.09-2.75-21.55,2-22.32,2.28-12,5.07-11.41,12.54-23.42,16.64-1.74.59-13.26,4.35-24-.62-2.88-1.33-5-3-9.24-6.16A110.77,110.77,0,0,1,84.09,156.9Z"/><path class="cls-4" d="M14.45,198.61l49.45,5.69s9.54,26,52.06,25.18c0,0,28.63,1.62,20,23.56,0,0-3.9,11.78-29.93,8.53C106,261.57,18.36,253.44,14.45,198.61Z"/><path class="cls-7" d="M87.71,160.46a36.08,36.08,0,0,0,19.52,15.71,35.42,35.42,0,0,0,19.84.47,26.41,26.41,0,0,0,19.14-17.87"/><path class="cls-8" d="M73.72,154.1s-11.87,36.46-28,34.76-24.59,19.5-24.59,19.5-54.26-78,11-157.69S175.45,9.13,175.45,9.13s73.76,58.5,28.83,121.24,19.5,50.87,19.5,50.87-26.28,47.48-77.15,27.13,27.13-60.19,27.13-60.19S245.82,38.8,122,26.08c0,0-64.43,5.93-62.74,41.54s10.17,33.91,10.17,33.91S40.65,95.6,33.87,78.65c0,0-11.87-2.54-17,3.39s-8.48,10.17-.85,22.89c0,0,5.93,5.93,22.89,5.09C39,110,39,134.6,73.72,154.1Z"/><path class="cls-4" d="M36,108.74a86.14,86.14,0,0,0,38.15,47.48C96.69,169.36,121,169.1,136,165.55a121.53,121.53,0,0,0,21.2-7.63,107.68,107.68,0,0,0,16.11-9.33c16.34-12,22.81-33.24,25-42,0,0,32.22,7.63,20.35-26.28,0,0-5.93-5.09-19.5-2.54a71.09,71.09,0,0,0-20.35-31.37C168.23,37.08,157.55,33.62,150,31.17c-6.74-2.19-20.06-6.36-37.3-4.24A84.17,84.17,0,0,0,89,33.71c-8.69,3.9-19.4,8.71-25.43,17.8-12.75,19.23,2.32,47.25,3.39,49.17a41.15,41.15,0,0,1-15.68-8.05c-4.74-4-5.33-6.09-10.17-9.33-3.91-2.62-10.33-6.91-17.8-5.09C18.13,79.48,12,83.76,10.56,90.94c-1.7,8.59,4.64,14.83,5.09,15.26,1.08.83,10.32,7.75,17.8,4.24A10.43,10.43,0,0,0,36,108.74Z"/><circle cx="109.75" cy="94.33" r="4.24"/><circle cx="174.18" cy="96.03" r="4.24"/><path class="cls-9" d="M141.12,85s9.33,9.33,9.33,17.8a20.1,20.1,0,0,1-17,1.7"/><path class="cls-10" d="M125.43,115.1s17,19.5,33.06,0"/><path class="cls-11" d="M90.67,77.8S103.39,69.32,117,71"/><path class="cls-11" d="M169.52,71s14.41-4.24,19.5,6.78"/></symbol><symbol id="ani3" data-name="ani3" viewBox="0 0 400 400"><use width="277" height="350.72" transform="translate(79.5 44.58)" xlink:href="#p3"/><rect class="cls-1" width="400" height="400"/></symbol><symbol id="pigen2" data-name="pigen2" viewBox="0 0 400 400"><polygon class="cls-2" points="112.02 376.31 112.02 391.8 202.25 391.8 174.91 376.31 112.02 376.31"/><polygon class="cls-2" points="173.04 376.95 238.6 376.95 264.25 389.3 173.04 389.3 173.04 376.95"/><polyline class="cls-3" points="115.9 274.02 115.7 376.75 167.48 376.75 167.48 306.62 181.04 306.62 181.04 376.75 232.82 376.75 232.82 288.33"/><path class="cls-4" d="M228.56,200.27c-10.63,18.43-30.08,26.52-44.93,21.2-11.39-4.09-16.72-14.87-18.23-18.23a98.73,98.73,0,0,0,14.84,3A104.1,104.1,0,0,0,228.56,200.27Z"/><path class="cls-4" d="M227.22,246.15l48.23-6.66a39.08,39.08,0,0,0,11.75,9.84s.6.33,1.23.64c8.3,4.16,37.94,2.22,42.93,1.88,0,0,27.48-5.54,25.15,18.76,0,0-.53,12.86-26,16.11C330.52,286.72,245.58,300.48,227.22,246.15Z"/><path class="cls-5" d="M232,196"/><path class="cls-6" d="M160.09,198s-66.77-14.92-72.26,42.76c0,0,19.21,6,54.88,8.95a45.17,45.17,0,0,0,10.52,17.4c6.8,6.83,14,9,23.78,11.93a110.72,110.72,0,0,0,30.64,4.47c15.15,8.16,21.53,7.28,24.55,4.88s2.72-6.59,4.55-13.93A65,65,0,0,1,246.63,253c-5.05-13.23-6.73-25.48-2.19-28.61,5.13-3.53,18.76,4.17,32.76,20.25-.26-24.42-11.08-43.89-25.75-47.89-10.09-2.75-21.55,2-22.32,2.28-12,5.07-11.41,12.54-23.42,16.64-1.74.59-13.26,4.35-24-.62-2.88-1.33-5-3-9.24-6.16A110.77,110.77,0,0,1,160.09,198Z"/><path class="cls-4" d="M90.07,245.26l49.71-2.53S153.47,266.8,195.27,259c0,0,28.51-3.11,23.56,20,0,0-1.91,12.26-28.12,13.34C190.71,292.29,102.94,298.7,90.07,245.26Z"/><path class="cls-7" d="M163.71,201.54a36.08,36.08,0,0,0,19.52,15.71,35.42,35.42,0,0,0,19.84.47,26.41,26.41,0,0,0,19.14-17.87"/><path class="cls-8" d="M149.72,195.18s-11.87,36.46-28,34.76-24.59,19.5-24.59,19.5-54.26-78,11-157.69S251.45,50.21,251.45,50.21s73.76,58.5,28.83,121.24,19.5,50.87,19.5,50.87-26.28,47.48-77.15,27.13,27.13-60.19,27.13-60.19S321.82,79.88,198,67.17c0,0-64.43,5.93-62.74,41.54s10.17,33.91,10.17,33.91-28.83-5.93-35.61-22.89c0,0-11.87-2.54-17,3.39s-8.48,10.17-.85,22.89c0,0,5.93,5.93,22.89,5.09C115,151.1,115,175.68,149.72,195.18Z"/><path class="cls-4" d="M112,149.83a86.14,86.14,0,0,0,38.15,47.48c22.55,13.14,46.84,12.88,61.89,9.33a121.53,121.53,0,0,0,21.2-7.63,107.68,107.68,0,0,0,16.11-9.33c16.34-12,22.81-33.24,25-42,0,0,32.22,7.63,20.35-26.28,0,0-5.93-5.09-19.5-2.54a71.09,71.09,0,0,0-20.35-31.37C244.23,78.17,233.55,74.7,226,72.25,219.28,70.07,206,65.9,188.72,68A84.17,84.17,0,0,0,165,74.8c-8.69,3.9-19.4,8.71-25.43,17.8-12.75,19.23,2.32,47.25,3.39,49.17a41.15,41.15,0,0,1-15.68-8.05c-4.74-4-5.33-6.09-10.17-9.33-3.91-2.62-10.33-6.91-17.8-5.09C94.13,120.56,88,124.84,86.56,132c-1.7,8.59,4.64,14.83,5.09,15.26,1.08.83,10.32,7.75,17.8,4.24A10.43,10.43,0,0,0,112,149.83Z"/><circle cx="185.75" cy="135.41" r="4.24"/><circle cx="250.18" cy="137.11" r="4.24"/><path class="cls-9" d="M217.12,126.09s9.33,9.33,9.33,17.8a20.1,20.1,0,0,1-17,1.7"/><path class="cls-10" d="M201.43,156.19s17,19.5,33.06,0"/><path class="cls-11" d="M166.67,118.88s12.72-8.48,26.28-6.78"/><path class="cls-11" d="M245.52,112.1s14.41-4.24,19.5,6.78"/><rect class="cls-1" width="400" height="400"/></symbol><symbol id="pigen3" data-name="pigen3" viewBox="0 0 400 400"><polygon class="cls-2" points="116.02 372.31 116.02 387.8 206.25 387.8 178.91 372.31 116.02 372.31"/><polygon class="cls-2" points="177.04 372.95 242.6 372.95 268.25 385.3 177.04 385.3 177.04 372.95"/><polyline class="cls-3" points="119.9 270.02 119.7 372.75 171.48 372.75 171.48 302.62 185.04 302.62 185.04 372.75 236.82 372.75 236.82 284.33"/><path class="cls-4" d="M232.56,196.27c-10.63,18.43-30.08,26.52-44.93,21.2-11.39-4.09-16.72-14.87-18.23-18.23a98.73,98.73,0,0,0,14.84,3A104.1,104.1,0,0,0,232.56,196.27Z"/><path class="cls-4" d="M238.78,222.57l47.64,10.06a39.08,39.08,0,0,0,7.72,13.23s.45.51.94,1c6.4,6.72,35,14.93,39.76,16.3,0,0,27.73,4.09,17.32,26.17,0,0-4.86,11.92-29.91,6.36C322.25,295.72,237.66,279.91,238.78,222.57Z"/><path class="cls-5" d="M236,192"/><path class="cls-6" d="M164.09,194s-66.77-14.92-72.26,42.76c0,0,19.21,6,54.88,8.95a45.17,45.17,0,0,0,10.52,17.4c6.8,6.83,14,9,23.78,11.93a110.72,110.72,0,0,0,30.64,4.47c15.15,8.16,21.53,7.28,24.55,4.88s2.72-6.59,4.55-13.93A65,65,0,0,1,250.63,249c-5.05-13.23-6.73-25.48-2.19-28.61,5.13-3.53,18.76,4.17,32.76,20.25-.26-24.42-11.08-43.89-25.75-47.89-10.09-2.75-21.55,2-22.32,2.28-12,5.07-11.41,12.54-23.42,16.64-1.74.59-13.26,4.35-24-.62-2.88-1.33-5-3-9.24-6.16A110.77,110.77,0,0,1,164.09,194Z"/><path class="cls-4" d="M92.93,237.84,142.61,241s10.84,25.48,53.26,22.53c0,0,28.68.18,21.11,22.52,0,0-3.31,12-29.46,10C187.52,296.1,99.59,292.4,92.93,237.84Z"/><path class="cls-7" d="M167.71,197.54a36.08,36.08,0,0,0,19.52,15.71,35.42,35.42,0,0,0,19.84.47,26.41,26.41,0,0,0,19.14-17.87"/><path class="cls-8" d="M153.72,191.18s-11.87,36.46-28,34.76-24.59,19.5-24.59,19.5-54.26-78,11-157.69S255.45,46.21,255.45,46.21s73.76,58.5,28.83,121.24,19.5,50.87,19.5,50.87-26.28,47.48-77.15,27.13,27.13-60.19,27.13-60.19S325.82,75.88,202,63.17c0,0-64.43,5.93-62.74,41.54s10.17,33.91,10.17,33.91-28.83-5.93-35.61-22.89c0,0-11.87-2.54-17,3.39s-8.48,10.17-.85,22.89c0,0,5.93,5.93,22.89,5.09C119,147.1,119,171.68,153.72,191.18Z"/><path class="cls-4" d="M116,145.83a86.14,86.14,0,0,0,38.15,47.48c22.55,13.14,46.84,12.88,61.89,9.33a121.53,121.53,0,0,0,21.2-7.63,107.68,107.68,0,0,0,16.11-9.33c16.34-12,22.81-33.24,25-42,0,0,32.22,7.63,20.35-26.28,0,0-5.93-5.09-19.5-2.54a71.09,71.09,0,0,0-20.35-31.37C248.23,74.17,237.55,70.7,230,68.25,223.28,66.07,210,61.9,192.72,64A84.17,84.17,0,0,0,169,70.8c-8.69,3.9-19.4,8.71-25.43,17.8-12.75,19.23,2.32,47.25,3.39,49.17a41.15,41.15,0,0,1-15.68-8.05c-4.74-4-5.33-6.09-10.17-9.33-3.91-2.62-10.33-6.91-17.8-5.09C98.13,116.56,92,120.84,90.56,128c-1.7,8.59,4.64,14.83,5.09,15.26,1.08.83,10.32,7.75,17.8,4.24A10.43,10.43,0,0,0,116,145.83Z"/><circle cx="189.75" cy="131.41" r="4.24"/><circle cx="254.18" cy="133.11" r="4.24"/><path class="cls-9" d="M221.12,122.09s9.33,9.33,9.33,17.8a20.1,20.1,0,0,1-17,1.7"/><path class="cls-10" d="M205.43,152.19s17,19.5,33.06,0"/><path class="cls-11" d="M170.67,114.88s12.72-8.48,26.28-6.78"/><path class="cls-11" d="M249.52,108.1s14.41-4.24,19.5,6.78"/><rect class="cls-1" width="400" height="400"/></symbol></defs><title>pigerne</title><g id="Layer_2" data-name="Layer 2"><g id="pige"><use width="400" height="400" xlink:href="#ani3"/><use width="400" height="400" transform="translate(401.5 3)" xlink:href="#pigen2"/><use width="400" height="400" transform="translate(799 6)" xlink:href="#pigen3"/></g></g></svg>
