<svg xmlns="http://www.w3.org/2000/svg" xmlns:xlink="http://www.w3.org/1999/xlink" viewBox="0 0 3610 805"><defs><style>.cls-1{fill:#4e4161;}.cls-2{fill:#8484c2;}.cls-3{fill:#f6d641;}.cls-10,.cls-11,.cls-4,.cls-6,.cls-8,.cls-9{fill:none;}.cls-4,.cls-8{stroke:#000;}.cls-10,.cls-4,.cls-6,.cls-8,.cls-9{stroke-miterlimit:10;}.cls-5{fill:#a974aa;}.cls-6{stroke:#c6b5c3;stroke-width:6px;}.cls-7{fill:#faeb86;}.cls-8{stroke-width:0.5px;}.cls-9{stroke:#f73939;stroke-width:3px;}.cls-10{stroke:#0c0c0c;}</style><symbol id="walk1" data-name="walk1" viewBox="0 0 400 400.1"><polygon class="cls-1" points="78.58 354.02 73.17 368.53 157.69 400.1 137.5 376.02 78.58 354.02"/><polygon class="cls-1" points="214.6 382.54 276.39 360.63 304.69 363.7 218.73 394.19 214.6 382.54"/><path class="cls-2" d="M113.72,254.2l-35.16,100,47,17.5a149.32,149.32,0,0,0,20.92-30.52,150.62,150.62,0,0,0,14.25-41.66l14.17,2.82c25.13,5,35.68,28.76,36.66,30.63,12.37,23.6,4.79,46.28,3.46,50l45-16c.09-3.08.16-7.58,0-13-.19-6.56-.69-24-4-36-1.84-6.68-7.67-23-29-39.11"/><path class="cls-3" d="M223.56,191.27c-10.63,18.43-30.08,26.52-44.93,21.2-11.39-4.09-16.72-14.87-18.23-18.23a98.73,98.73,0,0,0,14.84,3A104.1,104.1,0,0,0,223.56,191.27Z"/><path class="cls-3" d="M207.27,220.42l48.4,5.29a39.08,39.08,0,0,0,9,12.4s.5.47,1,.92c7,6.06,36.26,11.4,41.18,12.28,0,0,28,1.32,19.82,24.33,0,0-3.65,12.34-29.13,9.29C297.58,284.93,211.85,277.59,207.27,220.42Z"/><path class="cls-4" d="M227,187"/><path class="cls-5" d="M155.09,189s-66.77-14.92-72.26,42.76a86,86,0,0,1,14.06,3.36A89.27,89.27,0,0,1,130,255a24.73,24.73,0,0,0,7,12c6.08,5.5,12.6,4.87,30,6,21.16,1.38,31.68,2.32,40,4,11.4,2.31,16.4,5.25,21,2,3.51-2.48,3.7-6.39,7-17a186.42,186.42,0,0,1,6.63-18c-5.05-13.23-6.73-25.48-2.19-28.61,5.13-3.53,18.76,4.17,32.76,20.25-.26-24.42-11.08-43.89-25.75-47.89-10.09-2.75-21.55,2-22.32,2.28-12,5.07-11.41,12.54-23.42,16.64-1.74.59-13.26,4.35-24-.62-2.88-1.33-5-3-9.24-6.16A110.81,110.81,0,0,1,155.09,189Z"/><path class="cls-3" d="M93.33,195l34.76,35.64s-9,26.18,24.46,52.4c0,0,21.17,19.34.6,30.87,0,0-10.46,6.67-28.59-12.29C124.55,301.57,61.74,239.94,93.33,195Z"/><path class="cls-6" d="M158.71,192.54a36.08,36.08,0,0,0,19.52,15.71,35.42,35.42,0,0,0,19.84.47,26.41,26.41,0,0,0,19.14-17.87"/><path class="cls-7" d="M144.72,186.18s-11.87,36.46-28,34.76-24.59,19.5-24.59,19.5-54.26-78,11-157.69S246.45,41.21,246.45,41.21s73.76,58.5,28.83,121.24,19.5,50.87,19.5,50.87-26.28,47.48-77.15,27.13,27.13-60.19,27.13-60.19S316.82,70.88,193,58.17c0,0-64.43,5.93-62.74,41.54s10.17,33.91,10.17,33.91-28.83-5.93-35.61-22.89c0,0-11.87-2.54-17,3.39s-8.48,10.17-.85,22.89c0,0,5.93,5.93,22.89,5.09C110,142.1,110,166.68,144.72,186.18Z"/><path class="cls-3" d="M107,140.83a86.14,86.14,0,0,0,38.15,47.48c22.55,13.14,46.84,12.88,61.89,9.33a121.53,121.53,0,0,0,21.2-7.63,107.68,107.68,0,0,0,16.11-9.33c16.34-12,22.81-33.24,25-42,0,0,32.22,7.63,20.35-26.28,0,0-5.93-5.09-19.5-2.54a71.09,71.09,0,0,0-20.35-31.37C239.23,69.17,228.55,65.7,221,63.25,214.28,61.07,201,56.9,183.72,59A84.17,84.17,0,0,0,160,65.8c-8.69,3.9-19.4,8.71-25.43,17.8-12.75,19.23,2.32,47.25,3.39,49.17a41.15,41.15,0,0,1-15.68-8.05c-4.74-4-5.33-6.09-10.17-9.33-3.91-2.62-10.33-6.91-17.8-5.09C89.13,111.56,83,115.84,81.56,123c-1.7,8.59,4.64,14.83,5.09,15.26,1.08.83,10.32,7.75,17.8,4.24A10.43,10.43,0,0,0,107,140.83Z"/><circle cx="180.75" cy="126.41" r="4.24"/><circle cx="245.18" cy="128.11" r="4.24"/><path class="cls-8" d="M212.12,117.09s9.33,9.33,9.33,17.8a20.1,20.1,0,0,1-17,1.7"/><path class="cls-9" d="M196.43,147.19s17,19.5,33.06,0"/><path class="cls-10" d="M161.67,109.88s12.72-8.48,26.28-6.78"/><path class="cls-10" d="M240.52,103.1s14.41-4.24,19.5,6.78"/><rect class="cls-11" width="400" height="400"/></symbol><symbol id="walk2" data-name="walk2" viewBox="0 0 400 400.49"><polygon class="cls-1" points="88.69 309.62 73.22 310.37 77.58 400.49 91.74 372.43 88.69 309.62"/><polygon class="cls-1" points="234.69 387.64 300.04 382.36 326.6 392.61 235.69 399.95 234.69 387.64"/><path class="cls-2" d="M134.72,259.2C153.44,283.28,146.87,313,131,322c-11.27,6.39-28.45,3-42-8l1,40c3.7,2.08,34,18.48,61,5a55,55,0,0,0,16.46-12.85c14.26-16.34,14.42-35.93,14.25-41.66l14.17,2.82c25.13,5,35.68,28.76,36.66,30.63,12.37,23.6,4.79,46.28,3.46,50l47-4c-.44-6-1.11-14.6-2-25-1.77-20.57-2.68-31-4-36-2.48-9.46-9-24.11-29-39.11"/><path class="cls-3" d="M244.56,196.27c-10.63,18.43-30.08,26.52-44.93,21.2-11.39-4.09-16.72-14.87-18.23-18.23a98.73,98.73,0,0,0,14.84,3A104.1,104.1,0,0,0,244.56,196.27Z"/><path class="cls-3" d="M208.55,210.05,252.4,231.2a39.08,39.08,0,0,0,4.34,14.69s.32.61.67,1.22c4.61,8.06,30.38,22.85,34.72,25.32,0,0,25.95,10.59,10.57,29.55,0,0-7.56,10.42-30.56-1C272.14,301,193.77,265.47,208.55,210.05Z"/><path class="cls-4" d="M248,192"/><path class="cls-5" d="M176.09,194s-66.77-14.92-72.26,42.76c0,0,19.21,6,54.88,8.95a62.8,62.8,0,0,0,10.52,17.4c2.9,3.4,9.1,10.51,18.77,14.9,13.6,6.18,17.51-.55,40,4,11.4,2.31,16.4,5.25,21,2,3.51-2.48,3.7-6.39,7-17a186.42,186.42,0,0,1,6.63-18c-5.05-13.23-6.73-25.48-2.19-28.61,5.13-3.53,18.76,4.17,32.76,20.25-.26-24.42-11.08-43.89-25.75-47.89-10.09-2.75-21.55,2-22.32,2.28-12,5.07-11.41,12.54-23.42,16.64-1.74.59-13.26,4.35-24-.62-2.88-1.33-5-3-9.24-6.16A110.81,110.81,0,0,1,176.09,194Z"/><path class="cls-3" d="M125.45,225.18l44.34,22.62s-.15,27.69,40,41.8c0,0,26.25,11.54,10.46,29,0,0-7.78,9.67-31-2.48C189.18,316.16,109.93,277.91,125.45,225.18Z"/><path class="cls-6" d="M179.71,197.54a36.08,36.08,0,0,0,19.52,15.71,35.42,35.42,0,0,0,19.84.47,26.41,26.41,0,0,0,19.14-17.87"/><path class="cls-7" d="M165.72,191.18s-11.87,36.46-28,34.76-24.59,19.5-24.59,19.5-54.26-78,11-157.69S267.45,46.21,267.45,46.21s73.76,58.5,28.83,121.24,19.5,50.87,19.5,50.87-26.28,47.48-77.15,27.13,27.13-60.19,27.13-60.19S337.82,75.88,214,63.17c0,0-64.43,5.93-62.74,41.54s10.17,33.91,10.17,33.91-28.83-5.93-35.61-22.89c0,0-11.87-2.54-17,3.39s-8.48,10.17-.85,22.89c0,0,5.93,5.93,22.89,5.09C131,147.1,131,171.68,165.72,191.18Z"/><path class="cls-3" d="M128,145.83a86.14,86.14,0,0,0,38.15,47.48c22.55,13.14,46.84,12.88,61.89,9.33a121.53,121.53,0,0,0,21.2-7.63,107.68,107.68,0,0,0,16.11-9.33c16.34-12,22.81-33.24,25-42,0,0,32.22,7.63,20.35-26.28,0,0-5.93-5.09-19.5-2.54a71.09,71.09,0,0,0-20.35-31.37C260.23,74.17,249.55,70.7,242,68.25,235.28,66.07,222,61.9,204.72,64A84.17,84.17,0,0,0,181,70.8c-8.69,3.9-19.4,8.71-25.43,17.8-12.75,19.23,2.32,47.25,3.39,49.17a41.15,41.15,0,0,1-15.68-8.05c-4.74-4-5.33-6.09-10.17-9.33-3.91-2.62-10.33-6.91-17.8-5.09-5.15,1.25-11.29,5.53-12.72,12.72-1.7,8.59,4.64,14.83,5.09,15.26,1.08.83,10.32,7.75,17.8,4.24A10.43,10.43,0,0,0,128,145.83Z"/><circle cx="201.75" cy="131.41" r="4.24"/><circle cx="266.18" cy="133.11" r="4.24"/><path class="cls-8" d="M233.12,122.09s9.33,9.33,9.33,17.8a20.1,20.1,0,0,1-17,1.7"/><path class="cls-9" d="M217.43,152.19s17,19.5,33.06,0"/><path class="cls-10" d="M182.67,114.88s12.72-8.48,26.28-6.78"/><path class="cls-10" d="M261.52,108.1s14.41-4.24,19.5,6.78"/><rect class="cls-11" width="400" height="400"/></symbol><symbol id="walk3" data-name="walk3" viewBox="0 0 401 401"><polygon class="cls-1" points="124.26 309.47 108.82 310.7 116.01 400.64 129.28 372.16 124.26 309.47"/><polygon class="cls-1" points="167.38 381.83 232.87 384.88 257.91 398.42 166.8 394.17 167.38 381.83"/><path class="cls-2" d="M128.72,245.2A267.27,267.27,0,0,1,162,328a265.1,265.1,0,0,1,6,55l66,2a47.27,47.27,0,0,1-4-11c-3.48-15.29,1.32-23.32,1-36,0-1.52-.82-21.42-15-35-14.88-14.25-35.53-12.93-40.29-12.5a134.24,134.24,0,0,1,14.17,2.82c20.51,5.25,46.38,17.07,45.13,23.68-1.53,8.06-43,6.1-45,6a200.29,200.29,0,0,1-66-15l3,49c18.42,5.93,80.86,23.69,126-8,8.27-5.8,24.06-16.89,25-34s-13.36-34.79-36-45.11"/><path class="cls-3" d="M238.56,182.27c-10.63,18.43-30.08,26.52-44.93,21.2-11.39-4.09-16.72-14.87-18.23-18.23a98.73,98.73,0,0,0,14.84,3A104.1,104.1,0,0,0,238.56,182.27Z"/><path class="cls-3" d="M216.71,205.83l47.09,12.38a39.08,39.08,0,0,0,7.07,13.59s.43.54.89,1.07c6.06,7,34.18,16.62,38.92,18.22,0,0,27.5,5.44,16,27,0,0-5.43,11.67-30.18,4.89C296.51,283,212.8,263,216.71,205.83Z"/><path class="cls-4" d="M242,178"/><path class="cls-5" d="M170.09,180s-66.77-14.92-72.26,42.76c0,0,19.21,6,54.88,8.95-.58,3.89-.87,10.21,2.29,16.31,5.27,10.15,16.78,13.25,27,16,17.87,4.81,19.3-.19,40,4,11.4,2.31,16.4,5.25,21,2,3.51-2.48,3.7-6.39,7-17a186.42,186.42,0,0,1,6.63-18c-5.05-13.23-6.73-25.48-2.19-28.61,5.13-3.53,18.76,4.17,32.76,20.25-.26-24.42-11.08-43.89-25.75-47.89-10.09-2.75-21.55,2-22.32,2.28-12,5.07-11.41,12.54-23.42,16.64-1.74.59-13.26,4.35-24-.62-2.88-1.33-5-3-9.24-6.16A110.81,110.81,0,0,1,170.09,180Z"/><path class="cls-3" d="M117.08,195.48l36.55,33.79s-7.65,26.61,27.14,51.06c0,0,22.15,18.22,2.19,30.79,0,0-10.11,7.2-29.19-10.79C153.78,300.33,87.86,242,117.08,195.48Z"/><path class="cls-6" d="M173.71,183.54a36.08,36.08,0,0,0,19.52,15.71,35.42,35.42,0,0,0,19.84.47,26.41,26.41,0,0,0,19.14-17.87"/><path class="cls-7" d="M159.72,177.18s-11.87,36.46-28,34.76-24.59,19.5-24.59,19.5-54.26-78,11-157.69S261.45,32.21,261.45,32.21s73.76,58.5,28.83,121.24,19.5,50.87,19.5,50.87-26.28,47.48-77.15,27.13,27.13-60.19,27.13-60.19S331.82,61.88,208,49.17c0,0-64.43,5.93-62.74,41.54s10.17,33.91,10.17,33.91-28.83-5.93-35.61-22.89c0,0-11.87-2.54-17,3.39s-8.48,10.17-.85,22.89c0,0,5.93,5.93,22.89,5.09C125,133.1,125,157.68,159.72,177.18Z"/><path class="cls-3" d="M122,131.83a86.14,86.14,0,0,0,38.15,47.48c22.55,13.14,46.84,12.88,61.89,9.33a121.53,121.53,0,0,0,21.2-7.63,107.68,107.68,0,0,0,16.11-9.33c16.34-12,22.81-33.24,25-42,0,0,32.22,7.63,20.35-26.28,0,0-5.93-5.09-19.5-2.54a71.09,71.09,0,0,0-20.35-31.37C254.23,60.17,243.55,56.7,236,54.25,229.28,52.07,216,47.9,198.72,50A84.17,84.17,0,0,0,175,56.8c-8.69,3.9-19.4,8.71-25.43,17.8-12.75,19.23,2.32,47.25,3.39,49.17a41.15,41.15,0,0,1-15.68-8.05c-4.74-4-5.33-6.09-10.17-9.33-3.91-2.62-10.33-6.91-17.8-5.09C104.13,102.56,98,106.84,96.56,114c-1.7,8.59,4.64,14.83,5.09,15.26,1.08.83,10.32,7.75,17.8,4.24A10.43,10.43,0,0,0,122,131.83Z"/><circle cx="195.75" cy="117.41" r="4.24"/><circle cx="260.18" cy="119.11" r="4.24"/><path class="cls-8" d="M227.12,108.09s9.33,9.33,9.33,17.8a20.1,20.1,0,0,1-17,1.7"/><path class="cls-9" d="M211.43,138.19s17,19.5,33.06,0"/><path class="cls-10" d="M176.67,100.88S189.39,92.4,203,94.1"/><path class="cls-10" d="M255.52,94.1s14.41-4.24,19.5,6.78"/><rect class="cls-11" width="401" height="401"/></symbol><symbol id="walk4" data-name="walk4" viewBox="0 0 400 400"><polygon class="cls-1" points="98.31 339.56 90.86 353.14 169.96 396.55 153.44 369.82 98.31 339.56"/><polygon class="cls-1" points="222.7 338.25 288.04 343.59 312.6 357.99 221.69 350.56 222.7 338.25"/><path class="cls-2" d="M129.72,237.2A210.17,210.17,0,0,1,123,291a210.27,210.27,0,0,1-23,55l40,16c3.88-5,10-12.78,18-22,10.55-12.18,14.09-15,17-21,2.14-4.45,7.13-16.93,1.71-36.5a102.57,102.57,0,0,1,14.17,2.82c14.24,3.9,30.47,8.34,36.13,20.68,6,13.1-2.91,28.55-5,32l47,4a166.74,166.74,0,0,1,2-24c2.76-17.62,6.44-22.65,5-30s-8-17.18-33-26.11"/><path class="cls-3" d="M239.56,174.27c-10.63,18.43-30.08,26.52-44.93,21.2-11.39-4.09-16.72-14.87-18.23-18.23a98.73,98.73,0,0,0,14.84,3A104.1,104.1,0,0,0,239.56,174.27Z"/><path class="cls-3" d="M228.68,179.78l38.71,29.52a39.08,39.08,0,0,0,1.3,15.27s.19.66.41,1.33c2.9,8.82,25.17,28.48,28.92,31.78,0,0,23.29,15.59,4.42,31.07,0,0-9.5,8.68-29.74-7.09C272.7,281.66,203.07,231.1,228.68,179.78Z"/><path class="cls-4" d="M243,170"/><path class="cls-5" d="M171.09,172s-66.77-14.92-72.26,42.76c0,0,19.21,6,54.88,8.95a62.8,62.8,0,0,0,10.52,17.4c2.9,3.4,9.1,10.51,18.77,14.9,13.6,6.18,17.51-.55,40,4,11.4,2.31,16.4,5.25,21,2,3.51-2.48,3.7-6.39,7-17a186.42,186.42,0,0,1,6.63-18c-5.05-13.23-6.73-25.48-2.19-28.61,5.13-3.53,18.76,4.17,32.76,20.25-.26-24.42-11.08-43.89-25.75-47.89-10.09-2.75-21.55,2-22.32,2.28-12,5.07-11.41,12.54-23.42,16.64-1.74.59-13.26,4.35-24-.62-2.88-1.33-5-3-9.24-6.16A110.81,110.81,0,0,1,171.09,172Z"/><path class="cls-3" d="M108.67,196.9l44.68,21.94s.27,27.69,40.6,41.18c0,0,26.43,11.13,10.9,28.88,0,0-7.63,9.79-31.06-2C173.79,286.9,94,249.86,108.67,196.9Z"/><path class="cls-6" d="M174.71,175.54a36.08,36.08,0,0,0,19.52,15.71,35.42,35.42,0,0,0,19.84.47,26.41,26.41,0,0,0,19.14-17.87"/><path class="cls-7" d="M160.72,169.18s-11.87,36.46-28,34.76-24.59,19.5-24.59,19.5-54.26-78,11-157.69S262.45,24.21,262.45,24.21s73.76,58.5,28.83,121.24,19.5,50.87,19.5,50.87-26.28,47.48-77.15,27.13,27.13-60.19,27.13-60.19S332.82,53.88,209,41.17c0,0-64.43,5.93-62.74,41.54s10.17,33.91,10.17,33.91-28.83-5.93-35.61-22.89c0,0-11.87-2.54-17,3.39s-8.48,10.17-.85,22.89c0,0,5.93,5.93,22.89,5.09C126,125.1,126,149.68,160.72,169.18Z"/><path class="cls-3" d="M123,123.83a86.14,86.14,0,0,0,38.15,47.48c22.55,13.14,46.84,12.88,61.89,9.33a121.53,121.53,0,0,0,21.2-7.63,107.68,107.68,0,0,0,16.11-9.33c16.34-12,22.81-33.24,25-42,0,0,32.22,7.63,20.35-26.28,0,0-5.93-5.09-19.5-2.54a71.09,71.09,0,0,0-20.35-31.37C255.23,52.17,244.55,48.7,237,46.25,230.28,44.07,217,39.9,199.72,42A84.17,84.17,0,0,0,176,48.8c-8.69,3.9-19.4,8.71-25.43,17.8-12.75,19.23,2.32,47.25,3.39,49.17a41.15,41.15,0,0,1-15.68-8.05c-4.74-4-5.33-6.09-10.17-9.33-3.91-2.62-10.33-6.91-17.8-5.09C105.13,94.56,99,98.84,97.56,106c-1.7,8.59,4.64,14.83,5.09,15.26,1.08.83,10.32,7.75,17.8,4.24A10.43,10.43,0,0,0,123,123.83Z"/><circle cx="196.75" cy="109.41" r="4.24"/><circle cx="261.18" cy="111.11" r="4.24"/><path class="cls-8" d="M228.12,100.09s9.33,9.33,9.33,17.8a20.1,20.1,0,0,1-17,1.7"/><path class="cls-9" d="M212.43,130.19s17,19.5,33.06,0"/><path class="cls-10" d="M177.67,92.88S190.39,84.4,204,86.1"/><path class="cls-10" d="M256.52,86.1s14.41-4.24,19.5,6.78"/><rect class="cls-11" width="400" height="400"/></symbol><symbol id="walk5" data-name="walk5" viewBox="0 0 396 396"><polygon class="cls-1" points="88.31 338.56 80.86 352.14 159.96 395.55 143.44 368.82 88.31 338.56"/><polygon class="cls-1" points="213.63 369.28 278.56 360.26 305.67 368.97 215.32 381.51 213.63 369.28"/><path class="cls-2" d="M119.72,236.2A210.17,210.17,0,0,1,113,290a210.27,210.27,0,0,1-23,55l40,16c3.88-5,10-12.78,18-22,10.55-12.18,14.09-15,17-21,2.14-4.45,7.13-16.93,1.71-36.5a36.14,36.14,0,0,1,14.17,2.82C196.23,290.9,202.19,307,207,320a121.36,121.36,0,0,1,7,51l47-7c1.93-17.44-.35-30.75-3-40-2.47-8.62-5.18-13.4-11-27-6.26-14.61-10.83-27.07-14-36.11"/><path class="cls-3" d="M229.56,173.27c-10.63,18.43-30.08,26.52-44.93,21.2-11.39-4.09-16.72-14.87-18.23-18.23a98.73,98.73,0,0,0,14.84,3A104.1,104.1,0,0,0,229.56,173.27Z"/><path class="cls-3" d="M205.83,201l47.88,8.86a39.08,39.08,0,0,0,8.06,13s.47.5,1,1c6.56,6.56,35.32,14,40.16,15.29,0,0,27.82,3.39,18,25.72,0,0-4.55,12-29.74,7.11C291.12,272,206.17,258.38,205.83,201Z"/><path class="cls-4" d="M233,169"/><path class="cls-5" d="M161.09,171s-66.77-14.92-72.26,42.76c0,0,19.21,6,54.88,8.95-1,4.28-1.9,11,1.29,17.31,4.71,9.24,15.47,12,28,15,18.9,4.54,20,0,40,4,11.4,2.31,16.4,5.25,21,2,3.51-2.48,3.7-6.39,7-17a186.42,186.42,0,0,1,6.63-18c-5.05-13.23-6.73-25.48-2.19-28.61,5.13-3.53,18.76,4.17,32.76,20.25-.26-24.42-11.08-43.89-25.75-47.89-10.09-2.75-21.55,2-22.32,2.28-12,5.07-11.41,12.54-23.42,16.64-1.74.59-13.26,4.35-24-.62-2.88-1.33-5-3-9.24-6.16A110.81,110.81,0,0,1,161.09,171Z"/><path class="cls-3" d="M111.53,183,145,219.86s-9.91,25.86,22.65,53.21c0,0,20.5,20.06-.46,30.87,0,0-10.69,6.3-28.16-13.26C139.07,290.67,78.41,226.92,111.53,183Z"/><path class="cls-6" d="M164.71,174.54a36.08,36.08,0,0,0,19.52,15.71,35.42,35.42,0,0,0,19.84.47,26.41,26.41,0,0,0,19.14-17.87"/><path class="cls-7" d="M150.72,168.18s-11.87,36.46-28,34.76-24.59,19.5-24.59,19.5-54.26-78,11-157.69S252.45,23.21,252.45,23.21s73.76,58.5,28.83,121.24,19.5,50.87,19.5,50.87-26.28,47.48-77.15,27.13,27.13-60.19,27.13-60.19S322.82,52.88,199,40.17c0,0-64.43,5.93-62.74,41.54s10.17,33.91,10.17,33.91-28.83-5.93-35.61-22.89c0,0-11.87-2.54-17,3.39s-8.48,10.17-.85,22.89c0,0,5.93,5.93,22.89,5.09C116,124.1,116,148.68,150.72,168.18Z"/><path class="cls-3" d="M113,122.83a86.14,86.14,0,0,0,38.15,47.48c22.55,13.14,46.84,12.88,61.89,9.33a121.53,121.53,0,0,0,21.2-7.63,107.68,107.68,0,0,0,16.11-9.33c16.34-12,22.81-33.24,25-42,0,0,32.22,7.63,20.35-26.28,0,0-5.93-5.09-19.5-2.54a71.09,71.09,0,0,0-20.35-31.37C245.23,51.17,234.55,47.7,227,45.25,220.28,43.07,207,38.9,189.72,41A84.17,84.17,0,0,0,166,47.8c-8.69,3.9-19.4,8.71-25.43,17.8-12.75,19.23,2.32,47.25,3.39,49.17a41.15,41.15,0,0,1-15.68-8.05c-4.74-4-5.33-6.09-10.17-9.33-3.91-2.62-10.33-6.91-17.8-5.09C95.13,93.56,89,97.84,87.56,105c-1.7,8.59,4.64,14.83,5.09,15.26,1.08.83,10.32,7.75,17.8,4.24A10.43,10.43,0,0,0,113,122.83Z"/><circle cx="186.75" cy="108.41" r="4.24"/><circle cx="251.18" cy="110.11" r="4.24"/><path class="cls-8" d="M218.12,99.09s9.33,9.33,9.33,17.8a20.1,20.1,0,0,1-17,1.7"/><path class="cls-9" d="M202.43,129.19s17,19.5,33.06,0"/><path class="cls-10" d="M167.67,91.88S180.39,83.4,194,85.1"/><path class="cls-10" d="M246.52,85.1s14.41-4.24,19.5,6.78"/><rect class="cls-11" width="396" height="396"/></symbol><symbol id="show1" data-name="show1" viewBox="0 0 400 400"><polygon class="cls-1" points="51.02 377.31 51.02 392.8 141.25 392.8 113.91 377.31 51.02 377.31"/><polygon class="cls-1" points="112.04 377.95 177.6 377.95 203.25 390.3 112.04 390.3 112.04 377.95"/><polyline class="cls-2" points="54.9 275.02 54.7 377.75 106.48 377.75 106.48 307.62 120.04 307.62 120.04 377.75 171.82 377.75 171.82 289.33"/><path class="cls-3" d="M167.56,201.27c-10.63,18.43-30.08,26.52-44.93,21.2-11.39-4.09-16.72-14.87-18.23-18.23a98.73,98.73,0,0,0,14.84,3A104.1,104.1,0,0,0,167.56,201.27Z"/><path class="cls-3" d="M193.88,209.1,175.1,254a39.08,39.08,0,0,1,6.5,13.87s.16.67.31,1.35c1.9,9.08-7.57,37.25-9.17,42,0,0-12.38,25.14,11.7,29.12,0,0,12.57,2.77,22.22-21C206.66,319.34,241.71,240.75,193.88,209.1Z"/><path class="cls-4" d="M171,197"/><path class="cls-5" d="M99.09,199s-66.77-14.92-72.26,42.76c4.53.94,9.22,2,14.06,3.36A242.07,242.07,0,0,1,70,255c-.37,6.18-.26,20.06,9,30,7.36,7.9,19,9,42,11,25.23,2.15,43.32,3.48,50.2-6.61,2.09-3.06,2.07-4,4.55-13.93A65,65,0,0,1,185.63,254c-5.05-13.23-6.73-25.48-2.19-28.61,5.13-3.53,18.76,4.17,32.76,20.25-.26-24.42-11.08-43.89-25.75-47.89-10.09-2.75-21.55,2-22.32,2.28-12,5.07-11.41,12.54-23.42,16.64-1.74.59-13.26,4.35-24-.62-2.88-1.33-5-3-9.24-6.16A110.81,110.81,0,0,1,99.09,199Z"/><path class="cls-3" d="M36,225.56,73.68,258.1S66.94,285,102.53,308.21c0,0,22.75,17.46,3.23,30.7,0,0-9.86,7.54-29.54-9.8C76.23,329.11,8.37,273.08,36,225.56Z"/><path class="cls-6" d="M102.71,202.54a36.08,36.08,0,0,0,19.52,15.71,35.42,35.42,0,0,0,19.84.47,26.41,26.41,0,0,0,19.14-17.87"/><path class="cls-7" d="M88.72,196.18s-11.87,36.46-28,34.76-24.59,19.5-24.59,19.5-54.26-78,11-157.69S190.45,51.21,190.45,51.21s73.76,58.5,28.83,121.24,19.5,50.87,19.5,50.87-26.28,47.48-77.15,27.13,27.13-60.19,27.13-60.19S260.82,80.88,137,68.17c0,0-64.43,5.93-62.74,41.54s10.17,33.91,10.17,33.91-28.83-5.93-35.61-22.89c0,0-11.87-2.54-17,3.39s-8.48,10.17-.85,22.89c0,0,5.93,5.93,22.89,5.09C54,152.1,54,176.68,88.72,196.18Z"/><path class="cls-3" d="M51,150.83A86.14,86.14,0,0,0,89.14,198.3c22.55,13.14,46.84,12.88,61.89,9.33a121.53,121.53,0,0,0,21.2-7.63,107.68,107.68,0,0,0,16.11-9.33c16.34-12,22.81-33.24,25-42,0,0,32.22,7.63,20.35-26.28,0,0-5.93-5.09-19.5-2.54a71.09,71.09,0,0,0-20.35-31.37C183.23,79.17,172.55,75.7,165,73.25,158.28,71.07,145,66.9,127.72,69A84.17,84.17,0,0,0,104,75.8c-8.69,3.9-19.4,8.71-25.43,17.8-12.75,19.23,2.32,47.25,3.39,49.17a41.15,41.15,0,0,1-15.68-8.05c-4.74-4-5.33-6.09-10.17-9.33-3.91-2.62-10.33-6.91-17.8-5.09C33.13,121.56,27,125.84,25.56,133c-1.7,8.59,4.64,14.83,5.09,15.26,1.08.83,10.32,7.75,17.8,4.24A10.43,10.43,0,0,0,51,150.83Z"/><circle cx="120.75" cy="136.41" r="4.24"/><circle cx="178.18" cy="138.11" r="4.24"/><path class="cls-8" d="M156.12,127.09s9.33,9.33,9.33,17.8a20.1,20.1,0,0,1-17,1.7"/><path class="cls-9" d="M140.43,157.19s17,19.5,33.06,0"/><path class="cls-10" d="M105.67,119.88s12.72-8.48,26.28-6.78"/><path class="cls-10" d="M184.52,113.1s14.41-4.24,19.5,6.78"/><rect class="cls-11" width="400" height="400"/></symbol><symbol id="show2" data-name="show2" viewBox="0 0 400 400"><polygon class="cls-1" points="49.02 380.31 49.02 395.8 139.25 395.8 111.91 380.31 49.02 380.31"/><polygon class="cls-1" points="110.04 380.95 175.6 380.95 201.25 393.3 110.04 393.3 110.04 380.95"/><polyline class="cls-2" points="52.9 278.02 52.7 380.75 104.48 380.75 104.48 310.62 118.04 310.62 118.04 380.75 169.82 380.75 169.82 292.33"/><path class="cls-3" d="M165.56,204.27c-10.63,18.43-30.08,26.52-44.93,21.2-11.39-4.09-16.72-14.87-18.23-18.23a98.73,98.73,0,0,0,14.84,3A104.1,104.1,0,0,0,165.56,204.27Z"/><path class="cls-3" d="M169.71,236.62,218,242.55a39.08,39.08,0,0,0,8.83,12.52s.5.47,1,.94c7,6.15,36.1,11.88,41,12.82,0,0,28,1.7,19.5,24.59,0,0-3.81,12.29-29.25,8.9C259.15,302.32,173.52,293.84,169.71,236.62Z"/><path class="cls-4" d="M169,200"/><path class="cls-5" d="M97.09,202s-66.77-14.92-72.26,42.76c0,0,19.21,6,54.88,8.95a45.17,45.17,0,0,0,10.52,17.4c6.8,6.83,14,9,23.78,11.93a110.72,110.72,0,0,0,30.64,4.47c15.15,8.16,21.53,7.28,24.55,4.88s2.72-6.59,4.55-13.93A65,65,0,0,1,183.63,257c-5.05-13.23-6.73-25.48-2.19-28.61,5.13-3.53,18.76,4.17,32.76,20.25-.26-24.42-11.08-43.89-25.75-47.89-10.09-2.75-21.55,2-22.32,2.28-12,5.07-11.41,12.54-23.42,16.64-1.74.59-13.26,4.35-24-.62-2.88-1.33-5-3-9.24-6.16A110.77,110.77,0,0,1,97.09,202Z"/><path class="cls-3" d="M27.45,243.7l49.45,5.69s9.54,26,52.06,25.18c0,0,28.63,1.62,20,23.56,0,0-3.9,11.78-29.93,8.53C119,306.65,31.36,298.53,27.45,243.7Z"/><path class="cls-6" d="M100.71,205.54a36.08,36.08,0,0,0,19.52,15.71,35.42,35.42,0,0,0,19.84.47,26.41,26.41,0,0,0,19.14-17.87"/><path class="cls-7" d="M86.72,199.18s-11.87,36.46-28,34.76-24.59,19.5-24.59,19.5-54.26-78,11-157.69S188.45,54.21,188.45,54.21s73.76,58.5,28.83,121.24,19.5,50.87,19.5,50.87-26.28,47.48-77.15,27.13,27.13-60.19,27.13-60.19S258.82,83.88,135,71.17c0,0-64.43,5.93-62.74,41.54s10.17,33.91,10.17,33.91-28.83-5.93-35.61-22.89c0,0-11.87-2.54-17,3.39s-8.48,10.17-.85,22.89c0,0,5.93,5.93,22.89,5.09C52,155.1,52,179.68,86.72,199.18Z"/><path class="cls-3" d="M49,153.83A86.14,86.14,0,0,0,87.14,201.3c22.55,13.14,46.84,12.88,61.89,9.33a121.53,121.53,0,0,0,21.2-7.63,107.68,107.68,0,0,0,16.11-9.33c16.34-12,22.81-33.24,25-42,0,0,32.22,7.63,20.35-26.28,0,0-5.93-5.09-19.5-2.54a71.09,71.09,0,0,0-20.35-31.37C181.23,82.17,170.55,78.7,163,76.25,156.28,74.07,143,69.9,125.72,72A84.17,84.17,0,0,0,102,78.8c-8.69,3.9-19.4,8.71-25.43,17.8-12.75,19.23,2.32,47.25,3.39,49.17a41.15,41.15,0,0,1-15.68-8.05c-4.74-4-5.33-6.09-10.17-9.33-3.91-2.62-10.33-6.91-17.8-5.09C31.13,124.56,25,128.84,23.56,136c-1.7,8.59,4.64,14.83,5.09,15.26,1.08.83,10.32,7.75,17.8,4.24A10.43,10.43,0,0,0,49,153.83Z"/><circle cx="122.75" cy="139.41" r="4.24"/><circle cx="187.18" cy="141.11" r="4.24"/><path class="cls-8" d="M154.12,130.09s9.33,9.33,9.33,17.8a20.1,20.1,0,0,1-17,1.7"/><path class="cls-9" d="M138.43,160.19s17,19.5,33.06,0"/><path class="cls-10" d="M103.67,122.88s12.72-8.48,26.28-6.78"/><path class="cls-10" d="M182.52,116.1s14.41-4.24,19.5,6.78"/><rect class="cls-11" width="400" height="400"/></symbol><symbol id="show3" data-name="show3" viewBox="0 0 400 400"><polygon class="cls-1" points="60.02 384.31 60.02 399.8 150.25 399.8 122.91 384.31 60.02 384.31"/><polygon class="cls-1" points="121.04 384.95 186.6 384.95 212.25 397.3 121.04 397.3 121.04 384.95"/><polyline class="cls-2" points="63.9 282.02 63.7 384.75 115.48 384.75 115.48 314.62 129.04 314.62 129.04 384.75 180.82 384.75 180.82 296.33"/><path class="cls-3" d="M176.56,208.27c-10.63,18.43-30.08,26.52-44.93,21.2-11.39-4.09-16.72-14.87-18.23-18.23a98.73,98.73,0,0,0,14.84,3A104.1,104.1,0,0,0,176.56,208.27Z"/><path class="cls-3" d="M172.3,244.68l46.19-15.41a39.08,39.08,0,0,0,13.36,7.51s.65.21,1.33.41c8.92,2.56,37.7-4.79,42.54-6,0,0,26-10.49,28.17,13.82,0,0,1.84,12.74-22.58,20.61C281.3,265.57,200.34,294.71,172.3,244.68Z"/><path class="cls-4" d="M180,204"/><path class="cls-5" d="M108.09,206s-66.77-14.92-72.26,42.76A43.21,43.21,0,0,1,66,264c-.05,10.62,3.36,16.11,6,19,6.92,7.59,17.08,6.72,44,9,12,1,21.76,2.19,28,3,23.61,8.11,32.53,5.53,36.2,1.39,2.53-2.85,2.55-5.92,4.55-13.93A65,65,0,0,1,194.63,261c-5.05-13.23-6.73-25.48-2.19-28.61,5.13-3.53,18.76,4.17,32.76,20.25-.26-24.42-11.08-43.89-25.75-47.89-10.09-2.75-21.55,2-22.32,2.28-12,5.07-11.41,12.54-23.42,16.64-1.74.59-13.26,4.35-24-.62-2.88-1.33-5-3-9.24-6.16A110.81,110.81,0,0,1,108.09,206Z"/><path class="cls-3" d="M35.3,235.55l49.74-2s13.43,24.21,55.31,16.87c0,0,28.54-2.8,23.34,20.2,0,0-2,12.24-28.26,13C135.43,283.66,47.59,289.12,35.3,235.55Z"/><path class="cls-6" d="M111.71,209.54a36.08,36.08,0,0,0,19.52,15.71,35.42,35.42,0,0,0,19.84.47,26.41,26.41,0,0,0,19.14-17.87"/><path class="cls-7" d="M97.72,203.18s-11.87,36.46-28,34.76-24.59,19.5-24.59,19.5-54.26-78,11-157.69S199.45,58.21,199.45,58.21s73.76,58.5,28.83,121.24,19.5,50.87,19.5,50.87-26.28,47.48-77.15,27.13,27.13-60.19,27.13-60.19S269.82,87.88,146,75.17c0,0-64.43,5.93-62.74,41.54s10.17,33.91,10.17,33.91-28.83-5.93-35.61-22.89c0,0-11.87-2.54-17,3.39s-8.48,10.17-.85,22.89c0,0,5.93,5.93,22.89,5.09C63,159.1,63,183.68,97.72,203.18Z"/><path class="cls-3" d="M60,157.83A86.14,86.14,0,0,0,98.14,205.3c22.55,13.14,46.84,12.88,61.89,9.33a121.53,121.53,0,0,0,21.2-7.63,107.68,107.68,0,0,0,16.11-9.33c16.34-12,22.81-33.24,25-42,0,0,32.22,7.63,20.35-26.28,0,0-5.93-5.09-19.5-2.54a71.09,71.09,0,0,0-20.35-31.37C192.23,86.17,181.55,82.7,174,80.25,167.28,78.07,154,73.9,136.72,76A84.17,84.17,0,0,0,113,82.8c-8.69,3.9-19.4,8.71-25.43,17.8-12.75,19.23,2.32,47.25,3.39,49.17a41.15,41.15,0,0,1-15.68-8.05c-4.74-4-5.33-6.09-10.17-9.33-3.91-2.62-10.33-6.91-17.8-5.09C42.13,128.56,36,132.84,34.56,140c-1.7,8.59,4.64,14.83,5.09,15.26,1.08.83,10.32,7.75,17.8,4.24A10.43,10.43,0,0,0,60,157.83Z"/><circle cx="125.75" cy="143.41" r="4.24"/><circle cx="190.18" cy="145.11" r="4.24"/><path class="cls-8" d="M165.12,134.09s9.33,9.33,9.33,17.8a20.1,20.1,0,0,1-17,1.7"/><path class="cls-9" d="M149.43,164.19s17,19.5,33.06,0"/><path class="cls-10" d="M114.67,126.88s12.72-8.48,26.28-6.78"/><path class="cls-10" d="M193.52,120.1s14.41-4.24,19.5,6.78"/><rect class="cls-11" width="400" height="400"/></symbol><symbol id="show4" data-name="show4" viewBox="0 0 400 400"><polygon class="cls-1" points="67.02 383.31 67.02 398.8 157.25 398.8 129.91 383.31 67.02 383.31"/><polygon class="cls-1" points="128.04 383.95 193.6 383.95 219.25 396.3 128.04 396.3 128.04 383.95"/><polyline class="cls-2" points="70.9 281.02 70.7 383.75 122.48 383.75 122.48 313.62 136.04 313.62 136.04 383.75 187.82 383.75 187.82 295.33"/><path class="cls-3" d="M183.56,207.27c-10.63,18.43-30.08,26.52-44.93,21.2-11.39-4.09-16.72-14.87-18.23-18.23a98.73,98.73,0,0,0,14.84,3A104.1,104.1,0,0,0,183.56,207.27Z"/><path class="cls-3" d="M189.36,233l46.89,13.11a39.08,39.08,0,0,0,6.86,13.7s.42.54.87,1.08c6,7.12,33.92,17.15,38.63,18.83,0,0,27.41,5.87,15.59,27.23,0,0-5.61,11.58-30.25,4.42C267.94,311.34,184.55,290.13,189.36,233Z"/><path class="cls-4" d="M187,203"/><path class="cls-5" d="M115.09,205s-66.77-14.92-72.26,42.76c0,0,19.21,6,54.88,8.95a45.17,45.17,0,0,0,10.52,17.4C113.7,279.59,119.15,281,132,286c6.16,2.42,15.11,6.07,26,11,18.25,4.9,25.8,2.18,29.2-1.61,2.76-3.08,2.67-6.43,4.55-13.93A65,65,0,0,1,201.63,260c-5.05-13.23-6.73-25.48-2.19-28.61,5.13-3.53,18.76,4.17,32.76,20.25-.26-24.42-11.08-43.89-25.75-47.89-10.09-2.75-21.55,2-22.32,2.28-12,5.07-11.41,12.54-23.42,16.64-1.74.59-13.26,4.35-24-.62-2.88-1.33-5-3-9.24-6.16A110.81,110.81,0,0,1,115.09,205Z"/><path class="cls-3" d="M51.05,234.81l47,16.54s3.53,27.46,45.16,36.12c0,0,27.55,7.95,14.22,27.4,0,0-6.42,10.62-31.08,1.66C126.3,316.53,42.67,289.13,51.05,234.81Z"/><path class="cls-6" d="M118.71,208.54a36.08,36.08,0,0,0,19.52,15.71,35.42,35.42,0,0,0,19.84.47,26.41,26.41,0,0,0,19.14-17.87"/><path class="cls-7" d="M104.72,202.18s-11.87,36.46-28,34.76-24.59,19.5-24.59,19.5-54.26-78,11-157.69S206.45,57.21,206.45,57.21s73.76,58.5,28.83,121.24,19.5,50.87,19.5,50.87-26.28,47.48-77.15,27.13,27.13-60.19,27.13-60.19S276.82,86.88,153,74.17c0,0-64.43,5.93-62.74,41.54s10.17,33.91,10.17,33.91-28.83-5.93-35.61-22.89c0,0-11.87-2.54-17,3.39s-8.48,10.17-.85,22.89c0,0,5.93,5.93,22.89,5.09C70,158.1,70,182.68,104.72,202.18Z"/><path class="cls-3" d="M67,156.83a86.14,86.14,0,0,0,38.15,47.48c22.55,13.14,46.84,12.88,61.89,9.33a121.53,121.53,0,0,0,21.2-7.63,107.68,107.68,0,0,0,16.11-9.33c16.34-12,22.81-33.24,25-42,0,0,32.22,7.63,20.35-26.28,0,0-5.93-5.09-19.5-2.54a71.09,71.09,0,0,0-20.35-31.37C199.23,85.17,188.55,81.7,181,79.25,174.28,77.07,161,72.9,143.72,75A84.17,84.17,0,0,0,120,81.8c-8.69,3.9-19.4,8.71-25.43,17.8-12.75,19.23,2.32,47.25,3.39,49.17a41.15,41.15,0,0,1-15.68-8.05c-4.74-4-5.33-6.09-10.17-9.33-3.91-2.62-10.33-6.91-17.8-5.09C49.13,127.56,43,131.84,41.56,139c-1.7,8.59,4.64,14.83,5.09,15.26,1.08.83,10.32,7.75,17.8,4.24A10.43,10.43,0,0,0,67,156.83Z"/><circle cx="140.75" cy="142.41" r="4.24"/><circle cx="205.18" cy="144.11" r="4.24"/><path class="cls-8" d="M172.12,133.09s9.33,9.33,9.33,17.8a20.1,20.1,0,0,1-17,1.7"/><path class="cls-9" d="M156.43,163.19s17,19.5,33.06,0"/><path class="cls-10" d="M121.67,125.88s12.72-8.48,26.28-6.78"/><path class="cls-10" d="M200.52,119.1s14.41-4.24,19.5,6.78"/><rect class="cls-11" width="400" height="400"/></symbol><symbol id="show5" data-name="show5" viewBox="0 0 400 400"><polygon class="cls-1" points="79.02 382.31 79.02 397.8 169.25 397.8 141.91 382.31 79.02 382.31"/><polygon class="cls-1" points="140.04 382.95 205.6 382.95 231.25 395.3 140.04 395.3 140.04 382.95"/><polyline class="cls-2" points="82.9 280.02 82.7 382.75 134.48 382.75 134.48 312.62 148.04 312.62 148.04 382.75 199.82 382.75 199.82 294.33"/><path class="cls-3" d="M195.56,206.27c-10.63,18.43-30.08,26.52-44.93,21.2-11.39-4.09-16.72-14.87-18.23-18.23a98.73,98.73,0,0,0,14.84,3A104.1,104.1,0,0,0,195.56,206.27Z"/><path class="cls-3" d="M99.65,221.77,58.71,248.12a39.08,39.08,0,0,1-2.51,15.12s-.24.64-.51,1.29c-3.59,8.56-27.35,26.39-31.36,29.37,0,0-24.46,13.69-6.87,30.62,0,0,8.78,9.41,30.21-4.7C47.66,319.82,121.09,275,99.65,221.77Z"/><path class="cls-4" d="M199,202"/><path class="cls-5" d="M127.09,204s-66.77-14.92-72.26,42.76c4.53.94,9.22,2,14.06,3.36A242.07,242.07,0,0,1,98,260c-13.35,18.4-10.3,27.27-9,30,3,6.21,9.21,6.26,60,11,0,0,43,3.94,50.2-6.61,2.09-3.06,2.07-4,4.55-13.93A65,65,0,0,1,213.63,259c-5.05-13.23-6.73-25.48-2.19-28.61,5.13-3.53,18.76,4.17,32.76,20.25-.26-24.42-11.08-43.89-25.75-47.89-10.09-2.75-21.55,2-22.32,2.28-12,5.07-11.41,12.54-23.42,16.64-1.74.59-13.26,4.35-24-.62-2.88-1.33-5-3-9.24-6.16A110.81,110.81,0,0,1,127.09,204Z"/><path class="cls-3" d="M190.36,229.3l46.45,17.89s2.73,27.55,44.09,37.41c0,0,27.31,8.74,13.42,27.8,0,0-6.73,10.43-31.11.76C263.22,313.16,180.42,283.36,190.36,229.3Z"/><path class="cls-6" d="M130.71,207.54a36.08,36.08,0,0,0,19.52,15.71,35.42,35.42,0,0,0,19.84.47,26.41,26.41,0,0,0,19.14-17.87"/><path class="cls-7" d="M116.72,201.18s-11.87,36.46-28,34.76-24.59,19.5-24.59,19.5-54.26-78,11-157.69S218.45,56.21,218.45,56.21s73.76,58.5,28.83,121.24,19.5,50.87,19.5,50.87-26.28,47.48-77.15,27.13,27.13-60.19,27.13-60.19S288.82,85.88,165,73.17c0,0-64.43,5.93-62.74,41.54s10.17,33.91,10.17,33.91-28.83-5.93-35.61-22.89c0,0-11.87-2.54-17,3.39s-8.48,10.17-.85,22.89c0,0,5.93,5.93,22.89,5.09C82,157.1,82,181.68,116.72,201.18Z"/><path class="cls-3" d="M79,155.83a86.14,86.14,0,0,0,38.15,47.48c22.55,13.14,46.84,12.88,61.89,9.33a121.53,121.53,0,0,0,21.2-7.63,107.68,107.68,0,0,0,16.11-9.33c16.34-12,22.81-33.24,25-42,0,0,32.22,7.63,20.35-26.28,0,0-5.93-5.09-19.5-2.54a71.09,71.09,0,0,0-20.35-31.37C211.23,84.17,200.55,80.7,193,78.25,186.28,76.07,173,71.9,155.72,74A84.17,84.17,0,0,0,132,80.8c-8.69,3.9-19.4,8.71-25.43,17.8-12.75,19.23,2.32,47.25,3.39,49.17a41.15,41.15,0,0,1-15.68-8.05c-4.74-4-5.33-6.09-10.17-9.33-3.91-2.62-10.33-6.91-17.8-5.09C61.13,126.56,55,130.84,53.56,138c-1.7,8.59,4.64,14.83,5.09,15.26,1.08.83,10.32,7.75,17.8,4.24A10.43,10.43,0,0,0,79,155.83Z"/><circle cx="148.75" cy="141.41" r="4.24"/><circle cx="206.18" cy="143.11" r="4.24"/><path class="cls-8" d="M184.12,132.09s9.33,9.33,9.33,17.8a20.1,20.1,0,0,1-17,1.7"/><path class="cls-9" d="M168.43,162.19s17,19.5,33.06,0"/><path class="cls-10" d="M133.67,124.88s12.72-8.48,26.28-6.78"/><path class="cls-10" d="M212.52,118.1s14.41-4.24,19.5,6.78"/><rect class="cls-11" width="400" height="400"/></symbol></defs><title>sprite-girls</title><g id="Layer_2" data-name="Layer 2"><g id="pige"><use width="400" height="400.1" transform="translate(4)" xlink:href="#walk1"/><use width="400" height="400.49" transform="translate(404.75)" xlink:href="#walk2"/><use width="401" height="401" transform="translate(805)" xlink:href="#walk3"/><use width="400" height="400" transform="translate(1206.25)" xlink:href="#walk4"/><use width="396" height="396" transform="translate(1609)" xlink:href="#walk5"/><use width="400" height="400" transform="translate(0 405)" xlink:href="#show1"/><use width="400" height="400" transform="translate(404 405)" xlink:href="#show2"/><use width="400" height="400" transform="translate(808 405)" xlink:href="#show3"/><use width="400" height="400" transform="translate(1212 405)" xlink:href="#show4"/><use width="400" height="400" transform="translate(1616 405)" xlink:href="#show5"/><use width="400" height="400.1" transform="translate(2007.75)" xlink:href="#walk1"/><use width="400" height="400.49" transform="translate(2408.5)" xlink:href="#walk2"/><use width="401" height="401" transform="translate(2808.75)" xlink:href="#walk3"/><use width="400" height="400" transform="translate(3210)" xlink:href="#walk4"/></g></g></svg>
